ply
format ascii 1.0
comment created by gply, a Houdini tool.
comment converted from .[b]geo
comment for more information about Houdini, try:
comment www.sidefx.com
element vertex 24
property float x
property float y
property float z
property float nx
property float ny
property float nz
element face 12
property list uchar int vertex_indices
property int cube
end_header
0 0 0 0 0 -1 
0 0 1 -1 0 0 
0 1 0 0 0 -1 
0 1 1 -1 0 0 
1 0 0 0 0 -1 
1 0 1 1 0 0 
1 1 0 0 0 -1 
1 1 1 0 1 0 
0 0 0 0 -1 0 
0 0 0 -1 0 0 
0 0 1 0 0 1 
0 0 1 0 -1 0 
0 1 0 0 1 0 
0 1 0 -1 0 0 
0 1 1 0 0 1 
0 1 1 0 1 0 
1 0 0 0 -1 0 
1 0 0 1 0 0 
1 0 1 0 0 1 
1 0 1 0 -1 0 
1 1 0 1 0 0 
1 1 0 0 1 0 
1 1 1 0 0 1 
1 1 1 1 0 0 
3 0 4 6 0 
3 0 6 2 0 
3 9 13 3 0 
3 9 3 1 0 
3 12 21 7 0 
3 12 7 15 0 
3 17 23 20 0 
3 17 5 23 0 
3 8 19 16 0 
3 8 11 19 0 
3 10 22 18 0 
3 10 14 22 0 
