ply
format ascii 1.0
comment created by gply, a Houdini tool.
comment converted from .[b]geo
comment for more information about Houdini, try:
comment www.sidefx.com
element vertex 768
property float x
property float y
property float z
element face 768
property list uchar int vertex_indices
end_header
1.29999995 -2.6226834e-08 2.08696406e-06 
1.2750212 -2.6226834e-08 -0.253615469 
1.20104408 -2.6226834e-08 -0.497486681 
1.0809114 -2.6226834e-08 -0.722239792 
0.919239938 -2.6226834e-08 -0.919237614 
0.722242594 -2.6226834e-08 -1.08090961 
0.49748978 -2.6226834e-08 -1.20104277 
0.253618747 -2.6226834e-08 -1.2750206 
1.2552789e-06 -2.6226834e-08 -1.29999995 
-0.253616273 -2.6226834e-08 -1.27502096 
-0.497487456 -2.6226834e-08 -1.20104373 
-0.722240508 -2.6226834e-08 -1.08091092 
-0.91923821 -2.6226834e-08 -0.919239402 
-1.08091009 -2.6226834e-08 -0.722241938 
-1.20104313 -2.6226834e-08 -0.497489005 
-1.27502072 -2.6226834e-08 -0.253617942 
-1.29999995 -2.6226834e-08 -4.23593775e-07 
-1.27502084 -2.6226834e-08 0.253617108 
-1.20104349 -2.6226834e-08 0.49748823 
-1.08091056 -2.6226834e-08 0.722241223 
-0.919238746 -2.6226834e-08 0.919238746 
-0.722241223 -2.6226834e-08 1.08091056 
-0.49748823 -2.6226834e-08 1.20104337 
-0.253617257 -2.6226834e-08 1.27502084 
9.81472681e-08 -2.6226834e-08 1.29999995 
0.253617436 -2.6226834e-08 1.27502084 
0.497488439 -2.6226834e-08 1.20104337 
0.722241223 -2.6226834e-08 1.08091056 
0.919238746 -2.6226834e-08 0.919238746 
1.08091044 -2.6226834e-08 0.722241282 
1.20104337 -2.6226834e-08 0.497488469 
1.27502084 -2.6226834e-08 0.253617406 
1.28977776 -0.0776457265 2.07055382e-06 
1.26499534 -0.0776457265 -0.251621217 
1.19159997 -0.0776457265 -0.493574828 
1.07241201 -0.0776457265 -0.716560662 
0.912011743 -0.0776457265 -0.912009418 
0.716563463 -0.0776457265 -1.07241011 
0.493577927 -0.0776457265 -1.19159865 
0.251624495 -0.0776457265 -1.26499474 
1.24540827e-06 -0.0776457265 -1.28977776 
-0.251622051 -0.0776457265 -1.26499522 
-0.493575603 -0.0776457265 -1.19159973 
-0.716561377 -0.0776457265 -1.07241154 
-0.912010014 -0.0776457265 -0.912011206 
-1.07241058 -0.0776457265 -0.716562748 
-1.19159901 -0.0776457265 -0.493577152 
-1.26499498 -0.0776457265 -0.25162369 
-1.28977776 -0.0776457265 -4.2026295e-07 
-1.2649951 -0.0776457265 0.251622856 
-1.19159937 -0.0776457265 0.493576378 
-1.07241106 -0.0776457265 0.716562092 
-0.91201061 -0.0776457265 0.91201061 
-0.716562092 -0.0776457265 1.07241106 
-0.493576378 -0.0776457265 1.19159937 
-0.251623005 -0.0776457265 1.2649951 
9.73755121e-08 -0.0776457265 1.28977776 
0.251623183 -0.0776457265 1.26499498 
0.493576556 -0.0776457265 1.19159925 
0.716562092 -0.0776457265 1.07241106 
0.91201061 -0.0776457265 0.91201061 
1.07241094 -0.0776457265 0.716562152 
1.19159925 -0.0776457265 0.493576616 
1.26499498 -0.0776457265 0.251623154 
1.25980759 -0.149999991 2.02244109e-06 
1.23560107 -0.149999991 -0.245774373 
1.1639111 -0.149999991 -0.482105792 
1.04749262 -0.149999991 -0.699910164 
0.890819609 -0.149999991 -0.890817344 
0.699912906 -0.149999991 -1.04749084 
0.482108802 -0.149999991 -1.16390991 
0.245777562 -0.149999991 -1.23560047 
1.21646917e-06 -0.149999991 -1.25980759 
-0.245775178 -0.149999991 -1.23560095 
-0.482106537 -0.149999991 -1.16391087 
-0.699910879 -0.149999991 -1.04749227 
-0.89081794 -0.149999991 -0.890819073 
-1.04749131 -0.149999991 -0.69991219 
-1.16391015 -0.149999991 -0.482108057 
-1.23560059 -0.149999991 -0.245776772 
-1.25980759 -0.149999991 -4.10497421e-07 
-1.23560083 -0.149999991 0.245775968 
-1.16391051 -0.149999991 0.482107282 
-1.04749179 -0.149999991 0.699911535 
-0.890818477 -0.149999991 0.890818477 
-0.699911535 -0.149999991 1.04749179 
-0.482107282 -0.149999991 1.16391051 
-0.245776117 -0.149999991 1.23560083 
9.51128314e-08 -0.149999991 1.25980759 
0.245776311 -0.149999991 1.23560071 
0.48210749 -0.149999991 1.16391039 
0.699911535 -0.149999991 1.04749179 
0.890818477 -0.149999991 0.890818477 
1.04749167 -0.149999991 0.699911594 
1.16391039 -0.149999991 0.48210752 
1.23560071 -0.149999991 0.245776266 
1.2121321 -0.212132022 1.94590484e-06 
1.1888417 -0.212132022 -0.236473411 
1.1198647 -0.212132022 -0.463861227 
1.00785196 -0.212132022 -0.673423171 
0.857107878 -0.212132022 -0.857105732 
0.673425734 -0.212132022 -1.00785017 
0.463864118 -0.212132022 -1.11986351 
0.236476496 -0.212132022 -1.1888411 
1.17043373e-06 -0.212132022 -1.2121321 
-0.236474201 -0.212132022 -1.18884146 
-0.463861972 -0.212132022 -1.11986446 
-0.673423827 -0.212132022 -1.00785148 
-0.857106328 -0.212132022 -0.857107401 
-1.00785065 -0.212132022 -0.673425078 
-1.11986375 -0.212132022 -0.463863403 
-1.18884122 -0.212132022 -0.236475736 
-1.2121321 -0.212132022 -3.94962797e-07 
-1.18884134 -0.212132022 0.236474961 
-1.11986411 -0.212132022 0.463862687 
-1.007851 -0.212132022 0.673424482 
-0.857106805 -0.212132022 0.857106805 
-0.673424482 -0.212132022 1.007851 
-0.463862687 -0.212132022 1.11986411 
-0.236475095 -0.212132022 1.18884134 
9.15134279e-08 -0.212132022 1.2121321 
0.236475274 -0.212132022 1.18884122 
0.463862866 -0.212132022 1.11986399 
0.673424482 -0.212132022 1.007851 
0.857106805 -0.212132022 0.857106805 
1.007851 -0.212132022 0.673424542 
1.11986399 -0.212132022 0.463862896 
1.18884122 -0.212132022 0.236475244 
1.14999998 -0.259807646 1.84616056e-06 
1.12790334 -0.259807646 -0.224352136 
1.06246209 -0.259807646 -0.440084398 
0.956190884 -0.259807646 -0.638904452 
0.813173771 -0.259807646 -0.813171744 
0.638906956 -0.259807646 -0.956189275 
0.44008714 -0.259807646 -1.0624609 
0.224355057 -0.259807646 -1.12790287 
1.11043903e-06 -0.259807646 -1.14999998 
-0.224352866 -0.259807646 -1.12790322 
-0.440085083 -0.259807646 -1.06246185 
-0.638905108 -0.259807646 -0.956190467 
-0.813172281 -0.259807646 -0.813173294 
-0.956189692 -0.259807646 -0.6389063 
-1.06246126 -0.259807646 -0.440086454 
-1.12790298 -0.259807646 -0.224354327 
-1.14999998 -0.259807646 -3.74717558e-07 
-1.1279031 -0.259807646 0.224353597 
-1.0624615 -0.259807646 0.440085769 
-0.956190109 -0.259807646 0.638905704 
-0.813172758 -0.259807646 0.813172758 
-0.638905704 -0.259807646 0.956190109 
-0.440085769 -0.259807646 1.0624615 
-0.224353731 -0.259807646 1.1279031 
8.68225811e-08 -0.259807646 1.14999998 
0.224353895 -0.259807646 1.12790298 
0.440085918 -0.259807646 1.06246138 
0.638905704 -0.259807646 0.956190109 
0.813172758 -0.259807646 0.813172758 
0.95618999 -0.259807646 0.638905764 
1.06246138 -0.259807646 0.440085977 
1.12790298 -0.259807646 0.224353865 
1.07764566 -0.289777786 1.73000603e-06 
1.05693924 -0.289777786 -0.210236624 
0.995615363 -0.289777786 -0.412395686 
0.896030426 -0.289777786 -0.598706663 
0.762011528 -0.289777786 -0.762009561 
0.598708928 -0.289777786 -0.896028876 
0.412398249 -0.289777786 -0.99561429 
0.210239351 -0.289777786 -1.05693877 
1.04057369e-06 -0.289777786 -1.07764566 
-0.210237309 -0.289777786 -1.05693913 
-0.412396342 -0.289777786 -0.995615125 
-0.598707199 -0.289777786 -0.896030068 
-0.762010098 -0.289777786 -0.762011051 
-0.896029294 -0.289777786 -0.598708391 
-0.995614529 -0.289777786 -0.412397623 
-1.05693889 -0.289777786 -0.21023868 
-1.07764566 -0.289777786 -3.51141551e-07 
-1.05693901 -0.289777786 0.21023798 
-0.995614886 -0.289777786 0.412396967 
-0.896029651 -0.289777786 0.598707795 
-0.762010515 -0.289777786 0.762010515 
-0.598707795 -0.289777786 0.896029651 
-0.412396967 -0.289777786 0.995614827 
-0.210238114 -0.289777786 1.05693901 
8.13599854e-08 -0.289777786 1.07764566 
0.210238278 -0.289777786 1.05693901 
0.412397146 -0.289777786 0.995614767 
0.598707795 -0.289777786 0.896029651 
0.762010515 -0.289777786 0.762010515 
0.896029592 -0.289777786 0.598707855 
0.995614767 -0.289777786 0.412397176 
1.05693901 -0.289777786 0.210238233 
1 -0.300000012 1.60535706e-06 
0.980785549 -0.300000012 -0.195088819 
0.9238801 -0.300000012 -0.382682085 
0.83147037 -0.300000012 -0.555569112 
0.707107663 -0.300000012 -0.707105875 
0.555571258 -0.300000012 -0.83146894 
0.382684469 -0.300000012 -0.923879087 
0.195091352 -0.300000012 -0.980785072 
9.65599156e-07 -0.300000012 -1 
-0.195089459 -0.300000012 -0.980785429 
-0.382682681 -0.300000012 -0.923879862 
-0.555569649 -0.300000012 -0.831470013 
-0.707106352 -0.300000012 -0.707107246 
-0.831469297 -0.300000012 -0.555570722 
-0.923879325 -0.300000012 -0.382683873 
-0.980785191 -0.300000012 -0.195090726 
-1 -0.300000012 -3.2584137e-07 
-0.98078531 -0.300000012 0.195090085 
-0.923879623 -0.300000012 0.382683277 
-0.831469655 -0.300000012 0.555570185 
-0.707106769 -0.300000012 0.707106769 
-0.555570185 -0.300000012 0.831469655 
-0.382683277 -0.300000012 0.923879564 
-0.195090204 -0.300000012 0.98078531 
7.54979013e-08 -0.300000012 1 
0.195090353 -0.300000012 0.980785251 
0.382683426 -0.300000012 0.923879504 
0.555570185 -0.300000012 0.831469655 
0.707106769 -0.300000012 0.707106769 
0.831469595 -0.300000012 0.555570245 
0.923879504 -0.300000012 0.382683456 
0.980785251 -0.300000012 0.195090324 
0.922354281 -0.289777756 1.48070797e-06 
0.904631734 -0.289777756 -0.179941013 
0.852144778 -0.289777756 -0.352968454 
0.766910255 -0.289777756 -0.512431562 
0.652203798 -0.289777756 -0.652202129 
0.512433529 -0.289777756 -0.766908944 
0.35297066 -0.289777756 -0.852143824 
0.179943338 -0.289777756 -0.904631317 
8.90624506e-07 -0.289777756 -0.922354281 
-0.179941595 -0.289777756 -0.904631615 
-0.352969021 -0.289777756 -0.852144539 
-0.512432039 -0.289777756 -0.766909897 
-0.652202547 -0.289777756 -0.652203381 
-0.766909242 -0.289777756 -0.512433052 
-0.852144063 -0.289777756 -0.352970123 
-0.904631436 -0.289777756 -0.179942772 
-0.922354281 -0.289777756 -3.00541188e-07 
-0.904631555 -0.289777756 0.179942176 
-0.852144301 -0.289777756 0.352969557 
-0.766909599 -0.289777756 0.512432516 
-0.652202964 -0.289777756 0.652202964 
-0.512432516 -0.289777756 0.766909599 
-0.352969557 -0.289777756 0.852144241 
-0.17994228 -0.289777756 0.904631555 
6.963581e-08 -0.289777756 0.922354281 
0.179942429 -0.289777756 0.904631495 
0.352969706 -0.289777756 0.852144241 
0.512432516 -0.289777756 0.766909599 
0.652202964 -0.289777756 0.652202964 
0.76690954 -0.289777756 0.512432575 
0.852144241 -0.289777756 0.352969736 
0.904631495 -0.289777756 0.179942399 
0.850000024 -0.259807646 1.36455355e-06 
0.833667755 -0.259807646 -0.165825501 
0.785298109 -0.259807646 -0.325279772 
0.706749856 -0.259807646 -0.472233772 
0.601041555 -0.259807646 -0.601040006 
0.47223559 -0.259807646 -0.706748605 
0.325281799 -0.259807646 -0.785297275 
0.165827647 -0.259807646 -0.833667338 
8.20759283e-07 -0.259807646 -0.850000024 
-0.165826052 -0.259807646 -0.833667636 
-0.325280279 -0.259807646 -0.78529793 
-0.472234219 -0.259807646 -0.706749558 
-0.601040423 -0.259807646 -0.601041198 
-0.706748903 -0.259807646 -0.472235113 
-0.785297453 -0.259807646 -0.325281292 
-0.833667457 -0.259807646 -0.165827125 
-0.850000024 -0.259807646 -2.76965181e-07 
-0.833667517 -0.259807646 0.165826574 
-0.785297692 -0.259807646 0.325280786 
-0.706749201 -0.259807646 0.472234666 
-0.601040781 -0.259807646 0.601040781 
-0.472234666 -0.259807646 0.706749201 
-0.325280786 -0.259807646 0.785297632 
-0.165826678 -0.259807646 0.833667517 
6.41732214e-08 -0.259807646 0.850000024 
0.165826812 -0.259807646 0.833667457 
0.325280935 -0.259807646 0.785297573 
0.472234666 -0.259807646 0.706749201 
0.601040781 -0.259807646 0.601040781 
0.706749201 -0.259807646 0.472234726 
0.785297573 -0.259807646 0.325280935 
0.833667457 -0.259807646 0.165826783 
0.787868023 -0.212132081 1.2648095e-06 
0.772729576 -0.212132081 -0.153704241 
0.727895617 -0.212132081 -0.301502973 
0.655088902 -0.212132081 -0.437715143 
0.557107508 -0.212132081 -0.557106137 
0.437716842 -0.212132081 -0.655087769 
0.30150485 -0.212132081 -0.727894783 
0.153706238 -0.212132081 -0.772729218 
7.60764692e-07 -0.212132081 -0.787868023 
-0.153704748 -0.212132081 -0.772729456 
-0.30150345 -0.212132081 -0.727895379 
-0.43771556 -0.212132081 -0.655088663 
-0.557106495 -0.212132081 -0.55710721 
-0.655088067 -0.212132081 -0.437716395 
-0.727894962 -0.212132081 -0.301504374 
-0.772729278 -0.212132081 -0.153705746 
-0.787868023 -0.212132081 -2.5672e-07 
-0.772729397 -0.212132081 0.153705239 
-0.7278952 -0.212132081 0.301503927 
-0.655088365 -0.212132081 0.437715977 
-0.557106793 -0.212132081 0.557106793 
-0.437715977 -0.212132081 0.655088365 
-0.301503927 -0.212132081 0.727895141 
-0.153705329 -0.212132081 0.772729397 
5.94823817e-08 -0.212132081 0.787868023 
0.153705448 -0.212132081 0.772729337 
0.301504046 -0.212132081 0.727895141 
0.437715977 -0.212132081 0.655088365 
0.557106793 -0.212132081 0.557106793 
0.655088305 -0.212132081 0.437716037 
0.727895141 -0.212132081 0.301504046 
0.772729337 -0.212132081 0.153705433 
0.740192413 -0.150000066 1.18827313e-06 
0.72597003 -0.150000066 -0.144403264 
0.683849037 -0.150000066 -0.283258379 
0.615448058 -0.150000066 -0.411228031 
0.523395717 -0.150000066 -0.523394406 
0.41122964 -0.150000066 -0.615446985 
0.283260137 -0.150000066 -0.683848262 
0.144405141 -0.150000066 -0.725969672 
7.14729197e-07 -0.150000066 -0.740192413 
-0.144403741 -0.150000066 -0.725969911 
-0.283258826 -0.150000066 -0.683848858 
-0.411228448 -0.150000066 -0.615447819 
-0.523394763 -0.150000066 -0.523395419 
-0.615447283 -0.150000066 -0.411229223 
-0.683848441 -0.150000066 -0.28325969 
-0.725969732 -0.150000066 -0.14440468 
-0.740192413 -0.150000066 -2.41185319e-07 
-0.725969851 -0.150000066 0.144404203 
-0.683848679 -0.150000066 0.283259273 
-0.615447521 -0.150000066 0.411228836 
-0.523395061 -0.150000066 0.523395061 
-0.411228836 -0.150000066 0.615447521 
-0.283259273 -0.150000066 0.683848619 
-0.144404292 -0.150000066 0.725969851 
5.58829747e-08 -0.150000066 0.740192413 
0.144404396 -0.150000066 0.725969791 
0.283259362 -0.150000066 0.683848619 
0.411228836 -0.150000066 0.615447521 
0.523395061 -0.150000066 0.523395061 
0.615447462 -0.150000066 0.411228865 
0.683848619 -0.150000066 0.283259392 
0.725969791 -0.150000066 0.144404382 
0.710222244 -0.0776457861 1.14016029e-06 
0.696575701 -0.0776457861 -0.138556421 
0.656160176 -0.0776457861 -0.271789342 
0.590528727 -0.0776457861 -0.394577533 
0.502203584 -0.0776457861 -0.502202332 
0.394579053 -0.0776457861 -0.590527713 
0.271791011 -0.0776457861 -0.656159461 
0.138558224 -0.0776457861 -0.696575403 
6.85789985e-07 -0.0776457861 -0.710222244 
-0.138556868 -0.0776457861 -0.696575642 
-0.271789759 -0.0776457861 -0.656160057 
-0.39457792 -0.0776457861 -0.590528488 
-0.50220269 -0.0776457861 -0.502203286 
-0.590528011 -0.0776457861 -0.394578695 
-0.656159639 -0.0776457861 -0.271790594 
-0.696575463 -0.0776457861 -0.138557777 
-0.710222244 -0.0776457861 -2.3141979e-07 
-0.696575522 -0.0776457861 0.138557315 
-0.656159878 -0.0776457861 0.271790177 
-0.59052825 -0.0776457861 0.394578308 
-0.502202928 -0.0776457861 0.502202928 
-0.394578308 -0.0776457861 0.59052825 
-0.271790177 -0.0776457861 0.656159818 
-0.138557404 -0.0776457861 0.696575522 
5.36202904e-08 -0.0776457861 0.710222244 
0.138557509 -0.0776457861 0.696575522 
0.271790296 -0.0776457861 0.656159759 
0.394578308 -0.0776457861 0.59052825 
0.502202928 -0.0776457861 0.502202928 
0.59052819 -0.0776457861 0.394578338 
0.656159759 -0.0776457861 0.271790296 
0.696575522 -0.0776457861 0.138557494 
0.699999988 -9.05974886e-08 1.12374994e-06 
0.686549902 -9.05974886e-08 -0.136562169 
0.646716058 -9.05974886e-08 -0.26787746 
0.582029223 -9.05974886e-08 -0.388898373 
0.494975358 -9.05974886e-08 -0.494974107 
0.388899863 -9.05974886e-08 -0.58202827 
0.267879128 -9.05974886e-08 -0.646715343 
0.136563942 -9.05974886e-08 -0.686549544 
6.75919409e-07 -9.05974886e-08 -0.699999988 
-0.136562616 -9.05974886e-08 -0.686549783 
-0.267877877 -9.05974886e-08 -0.646715879 
-0.38889876 -9.05974886e-08 -0.582028985 
-0.494974434 -9.05974886e-08 -0.49497506 
-0.582028508 -9.05974886e-08 -0.388899505 
-0.646715522 -9.05974886e-08 -0.267878711 
-0.686549604 -9.05974886e-08 -0.13656351 
-0.699999988 -9.05974886e-08 -2.2808895e-07 
-0.686549723 -9.05974886e-08 0.136563063 
-0.646715701 -9.05974886e-08 0.267878294 
-0.582028747 -9.05974886e-08 0.388899118 
-0.494974732 -9.05974886e-08 0.494974732 
-0.388899118 -9.05974886e-08 0.582028747 
-0.267878294 -9.05974886e-08 0.646715701 
-0.136563137 -9.05974886e-08 0.686549723 
5.28485309e-08 -9.05974886e-08 0.699999988 
0.136563241 -9.05974886e-08 0.686549664 
0.267878383 -9.05974886e-08 0.646715641 
0.388899118 -9.05974886e-08 0.582028747 
0.494974732 -9.05974886e-08 0.494974732 
0.582028687 -9.05974886e-08 0.388899177 
0.646715641 -9.05974886e-08 0.267878413 
0.686549664 -9.05974886e-08 0.136563227 
0.710222244 0.0776456147 1.14016029e-06 
0.696575701 0.0776456147 -0.138556421 
0.656160176 0.0776456147 -0.271789342 
0.590528727 0.0776456147 -0.394577533 
0.502203584 0.0776456147 -0.502202332 
0.394579053 0.0776456147 -0.590527713 
0.271791011 0.0776456147 -0.656159461 
0.138558224 0.0776456147 -0.696575403 
6.85789985e-07 0.0776456147 -0.710222244 
-0.138556868 0.0776456147 -0.696575642 
-0.271789759 0.0776456147 -0.656160057 
-0.39457792 0.0776456147 -0.590528488 
-0.50220269 0.0776456147 -0.502203286 
-0.590528011 0.0776456147 -0.394578695 
-0.656159639 0.0776456147 -0.271790594 
-0.696575463 0.0776456147 -0.138557777 
-0.710222244 0.0776456147 -2.3141979e-07 
-0.696575522 0.0776456147 0.138557315 
-0.656159878 0.0776456147 0.271790177 
-0.59052825 0.0776456147 0.394578308 
-0.502202928 0.0776456147 0.502202928 
-0.394578308 0.0776456147 0.59052825 
-0.271790177 0.0776456147 0.656159818 
-0.138557404 0.0776456147 0.696575522 
5.36202904e-08 0.0776456147 0.710222244 
0.138557509 0.0776456147 0.696575522 
0.271790296 0.0776456147 0.656159759 
0.394578308 0.0776456147 0.59052825 
0.502202928 0.0776456147 0.502202928 
0.59052819 0.0776456147 0.394578338 
0.656159759 0.0776456147 0.271790296 
0.696575522 0.0776456147 0.138557494 
0.740192294 0.149999902 1.1882729e-06 
0.725969911 0.149999902 -0.144403234 
0.683848917 0.149999902 -0.283258319 
0.615447938 0.149999902 -0.411227971 
0.523395658 0.149999902 -0.523394346 
0.411229551 0.149999902 -0.615446925 
0.283260107 0.149999902 -0.683848202 
0.144405112 0.149999902 -0.725969553 
7.14729083e-07 0.149999902 -0.740192294 
-0.144403711 0.149999902 -0.725969791 
-0.283258766 0.149999902 -0.683848739 
-0.411228359 0.149999902 -0.6154477 
-0.523394644 0.149999902 -0.52339536 
-0.615447164 0.149999902 -0.411229163 
-0.683848381 0.149999902 -0.28325966 
-0.725969613 0.149999902 -0.14440465 
-0.740192294 0.149999902 -2.41185262e-07 
-0.725969732 0.149999902 0.144404173 
-0.68384856 0.149999902 0.283259213 
-0.615447402 0.149999902 0.411228776 
-0.523395002 0.149999902 0.523395002 
-0.411228776 0.149999902 0.615447402 
-0.283259213 0.149999902 0.68384856 
-0.144404262 0.149999902 0.725969732 
5.5882964e-08 0.149999902 0.740192294 
0.144404382 0.149999902 0.725969672 
0.283259332 0.149999902 0.6838485 
0.411228776 0.149999902 0.615447402 
0.523395002 0.149999902 0.523395002 
0.615447402 0.149999902 0.411228806 
0.6838485 0.149999902 0.283259332 
0.725969672 0.149999902 0.144404352 
0.787867844 0.212131947 1.26480916e-06 
0.772729397 0.212131947 -0.153704211 
0.727895439 0.212131947 -0.301502913 
0.655088782 0.212131947 -0.437715054 
0.557107389 0.212131947 -0.557105958 
0.437716722 0.212131947 -0.65508765 
0.301504791 0.212131947 -0.727894604 
0.153706208 0.212131947 -0.772729039 
7.60764522e-07 0.212131947 -0.787867844 
-0.153704718 0.212131947 -0.772729278 
-0.30150339 0.212131947 -0.72789526 
-0.437715471 0.212131947 -0.655088484 
-0.557106376 0.212131947 -0.557107091 
-0.655087948 0.212131947 -0.437716305 
-0.727894783 0.212131947 -0.301504314 
-0.772729099 0.212131947 -0.153705716 
-0.787867844 0.212131947 -2.56719943e-07 
-0.772729218 0.212131947 0.153705209 
-0.727895021 0.212131947 0.301503837 
-0.655088186 0.212131947 0.437715888 
-0.557106674 0.212131947 0.557106674 
-0.437715888 0.212131947 0.655088186 
-0.301503837 0.212131947 0.727895021 
-0.153705299 0.212131947 0.772729218 
5.94823675e-08 0.212131947 0.787867844 
0.153705418 0.212131947 0.772729158 
0.301503956 0.212131947 0.727894962 
0.437715888 0.212131947 0.655088186 
0.557106674 0.212131947 0.557106674 
0.655088186 0.212131947 0.437715918 
0.727894962 0.212131947 0.301503986 
0.772729158 0.212131947 0.153705388 
0.849999905 0.259807557 1.36455333e-06 
0.833667636 0.259807557 -0.165825471 
0.78529799 0.259807557 -0.325279742 
0.706749737 0.259807557 -0.472233683 
0.601041436 0.259807557 -0.601039946 
0.472235531 0.259807557 -0.706748545 
0.325281769 0.259807557 -0.785297155 
0.165827632 0.259807557 -0.833667219 
8.20759169e-07 0.259807557 -0.849999905 
-0.165826023 0.259807557 -0.833667517 
-0.325280249 0.259807557 -0.785297811 
-0.47223416 0.259807557 -0.706749439 
-0.601040304 0.259807557 -0.601041079 
-0.706748843 0.259807557 -0.472235054 
-0.785297334 0.259807557 -0.325281262 
-0.833667338 0.259807557 -0.165827096 
-0.849999905 0.259807557 -2.76965125e-07 
-0.833667397 0.259807557 0.165826559 
-0.785297573 0.259807557 0.325280756 
-0.706749141 0.259807557 0.472234607 
-0.601040661 0.259807557 0.601040661 
-0.472234607 0.259807557 0.706749141 
-0.325280756 0.259807557 0.785297513 
-0.165826648 0.259807557 0.833667397 
6.41732072e-08 0.259807557 0.849999905 
0.165826783 0.259807557 0.833667397 
0.325280875 0.259807557 0.785297513 
0.472234607 0.259807557 0.706749141 
0.601040661 0.259807557 0.601040661 
0.706749082 0.259807557 0.472234666 
0.785297513 0.259807557 0.325280905 
0.833667397 0.259807557 0.165826753 
0.922354102 0.289777726 1.48070762e-06 
0.904631555 0.289777726 -0.179940969 
0.852144599 0.289777726 -0.352968395 
0.766910136 0.289777726 -0.512431443 
0.652203679 0.289777726 -0.65220201 
0.51243341 0.289777726 -0.766908765 
0.3529706 0.289777726 -0.852143645 
0.179943308 0.289777726 -0.904631138 
8.90624335e-07 0.289777726 -0.922354102 
-0.179941565 0.289777726 -0.904631436 
-0.352968931 0.289777726 -0.852144361 
-0.51243192 0.289777726 -0.766909778 
-0.652202427 0.289777726 -0.652203262 
-0.766909122 0.289777726 -0.512432933 
-0.852143884 0.289777726 -0.352970034 
-0.904631257 0.289777726 -0.179942727 
-0.922354102 0.289777726 -3.00541132e-07 
-0.904631376 0.289777726 0.179942146 
-0.852144182 0.289777726 0.352969497 
-0.76690942 0.289777726 0.512432456 
-0.652202845 0.289777726 0.652202845 
-0.512432456 0.289777726 0.76690942 
-0.352969497 0.289777726 0.852144122 
-0.17994225 0.289777726 0.904631376 
6.96357958e-08 0.289777726 0.922354102 
0.179942384 0.289777726 0.904631317 
0.352969617 0.289777726 0.852144063 
0.512432456 0.289777726 0.76690942 
0.652202845 0.289777726 0.652202845 
0.76690942 0.289777726 0.512432516 
0.852144063 0.289777726 0.352969646 
0.904631317 0.289777726 0.179942355 
0.999999821 0.300000012 1.60535672e-06 
0.98078537 0.300000012 -0.195088789 
0.923879921 0.300000012 -0.382682025 
0.831470251 0.300000012 -0.555568993 
0.707107544 0.300000012 -0.707105756 
0.555571139 0.300000012 -0.831468821 
0.38268441 0.300000012 -0.923878908 
0.195091322 0.300000012 -0.980784893 
9.65598929e-07 0.300000012 -0.999999821 
-0.19508943 0.300000012 -0.980785251 
-0.382682621 0.300000012 -0.923879683 
-0.55556953 0.300000012 -0.831469893 
-0.707106233 0.300000012 -0.707107127 
-0.831469178 0.300000012 -0.555570602 
-0.923879147 0.300000012 -0.382683814 
-0.980785012 0.300000012 -0.195090696 
-0.999999821 0.300000012 -3.25841313e-07 
-0.980785131 0.300000012 0.195090055 
-0.923879445 0.300000012 0.382683218 
-0.831469536 0.300000012 0.555570066 
-0.70710665 0.300000012 0.70710665 
-0.555570066 0.300000012 0.831469536 
-0.382683218 0.300000012 0.923879385 
-0.195090175 0.300000012 0.980785131 
7.54978871e-08 0.300000012 0.999999821 
0.195090324 0.300000012 0.980785072 
0.382683367 0.300000012 0.923879325 
0.555570066 0.300000012 0.831469536 
0.70710665 0.300000012 0.70710665 
0.831469476 0.300000012 0.555570126 
0.923879325 0.300000012 0.382683396 
0.980785072 0.300000012 0.195090294 
1.07764566 0.289777786 1.73000603e-06 
1.05693924 0.289777786 -0.210236624 
0.995615363 0.289777786 -0.412395686 
0.896030426 0.289777786 -0.598706663 
0.762011528 0.289777786 -0.762009561 
0.598708928 0.289777786 -0.896028876 
0.412398249 0.289777786 -0.99561429 
0.210239351 0.289777786 -1.05693877 
1.04057369e-06 0.289777786 -1.07764566 
-0.210237309 0.289777786 -1.05693913 
-0.412396342 0.289777786 -0.995615125 
-0.598707199 0.289777786 -0.896030068 
-0.762010098 0.289777786 -0.762011051 
-0.896029294 0.289777786 -0.598708391 
-0.995614529 0.289777786 -0.412397623 
-1.05693889 0.289777786 -0.21023868 
-1.07764566 0.289777786 -3.51141551e-07 
-1.05693901 0.289777786 0.21023798 
-0.995614886 0.289777786 0.412396967 
-0.896029651 0.289777786 0.598707795 
-0.762010515 0.289777786 0.762010515 
-0.598707795 0.289777786 0.896029651 
-0.412396967 0.289777786 0.995614827 
-0.210238114 0.289777786 1.05693901 
8.13599854e-08 0.289777786 1.07764566 
0.210238278 0.289777786 1.05693901 
0.412397146 0.289777786 0.995614767 
0.598707795 0.289777786 0.896029651 
0.762010515 0.289777786 0.762010515 
0.896029592 0.289777786 0.598707855 
0.995614767 0.289777786 0.412397176 
1.05693901 0.289777786 0.210238233 
1.1500001 0.259807587 1.84616079e-06 
1.12790346 0.259807587 -0.224352166 
1.06246221 0.259807587 -0.440084428 
0.956191003 0.259807587 -0.638904512 
0.81317389 0.259807587 -0.813171804 
0.638907015 0.259807587 -0.956189334 
0.440087169 0.259807587 -1.06246102 
0.224355072 0.259807587 -1.12790298 
1.11043914e-06 0.259807587 -1.1500001 
-0.224352896 0.259807587 -1.12790334 
-0.440085113 0.259807587 -1.06246197 
-0.638905168 0.259807587 -0.956190586 
-0.8131724 0.259807587 -0.813173413 
-0.956189752 0.259807587 -0.63890636 
-1.06246126 0.259807587 -0.440086484 
-1.1279031 0.259807587 -0.224354357 
-1.1500001 0.259807587 -3.74717615e-07 
-1.12790322 0.259807587 0.224353611 
-1.06246161 0.259807587 0.440085799 
-0.956190169 0.259807587 0.638905764 
-0.813172877 0.259807587 0.813172877 
-0.638905764 0.259807587 0.956190169 
-0.440085799 0.259807587 1.06246161 
-0.22435376 0.259807587 1.12790322 
8.68225953e-08 0.259807587 1.1500001 
0.224353924 0.259807587 1.1279031 
0.440085977 0.259807587 1.0624615 
0.638905764 0.259807587 0.956190169 
0.813172877 0.259807587 0.813172877 
0.956190109 0.259807587 0.638905823 
1.0624615 0.259807587 0.440086007 
1.1279031 0.259807587 0.224353895 
1.21213222 0.212131903 1.94590507e-06 
1.1888417 0.212131903 -0.236473441 
1.11986482 0.212131903 -0.463861287 
1.00785208 0.212131903 -0.673423231 
0.857107997 0.212131903 -0.857105792 
0.673425794 0.212131903 -1.00785029 
0.463864177 0.212131903 -1.11986363 
0.236476511 0.212131903 -1.18884122 
1.17043385e-06 0.212131903 -1.21213222 
-0.236474216 0.212131903 -1.18884158 
-0.463862002 0.212131903 -1.11986458 
-0.673423886 0.212131903 -1.0078516 
-0.857106388 0.212131903 -0.85710746 
-1.00785077 0.212131903 -0.673425198 
-1.11986387 0.212131903 -0.463863462 
-1.18884134 0.212131903 -0.236475751 
-1.21213222 0.212131903 -3.94962825e-07 
-1.18884146 0.212131903 0.236474976 
-1.11986423 0.212131903 0.463862717 
-1.00785112 0.212131903 0.673424542 
-0.857106924 0.212131903 0.857106924 
-0.673424542 0.212131903 1.00785112 
-0.463862717 0.212131903 1.11986423 
-0.236475125 0.212131903 1.18884146 
9.15134351e-08 0.212131903 1.21213222 
0.236475304 0.212131903 1.18884134 
0.463862896 0.212131903 1.11986411 
0.673424542 0.212131903 1.00785112 
0.857106924 0.212131903 0.857106924 
1.00785112 0.212131903 0.673424602 
1.11986411 0.212131903 0.463862956 
1.18884134 0.212131903 0.236475259 
1.25980783 0.149999723 2.02244132e-06 
1.23560131 0.149999723 -0.245774418 
1.16391134 0.149999723 -0.482105881 
1.04749286 0.149999723 -0.699910343 
0.890819788 0.149999723 -0.890817523 
0.699913025 0.149999723 -1.04749107 
0.482108891 0.149999723 -1.16391015 
0.245777607 0.149999723 -1.23560071 
1.2164694e-06 0.149999723 -1.25980783 
-0.245775223 0.149999723 -1.23560119 
-0.482106626 0.149999723 -1.1639111 
-0.699910998 0.149999723 -1.04749238 
-0.890818119 0.149999723 -0.890819252 
-1.04749155 0.149999723 -0.699912369 
-1.16391039 0.149999723 -0.482108146 
-1.23560083 0.149999723 -0.245776817 
-1.25980783 0.149999723 -4.10497506e-07 
-1.23560107 0.149999723 0.245776013 
-1.16391075 0.149999723 0.482107401 
-1.04749203 0.149999723 0.699911654 
-0.890818655 0.149999723 0.890818655 
-0.699911654 0.149999723 1.04749203 
-0.482107401 0.149999723 1.16391075 
-0.245776162 0.149999723 1.23560107 
9.51128456e-08 0.149999723 1.25980783 
0.245776355 0.149999723 1.23560095 
0.48210758 0.149999723 1.16391063 
0.699911654 0.149999723 1.04749203 
0.890818655 0.149999723 0.890818655 
1.04749191 0.149999723 0.699911714 
1.16391063 0.149999723 0.48210761 
1.23560095 0.149999723 0.245776311 
1.28977787 0.0776452795 2.07055405e-06 
1.26499546 0.0776452795 -0.251621246 
1.19160008 0.0776452795 -0.493574888 
1.07241213 0.0776452795 -0.716560721 
0.912011802 0.0776452795 -0.912009537 
0.716563523 0.0776452795 -1.07241023 
0.493577957 0.0776452795 -1.19159877 
0.251624495 0.0776452795 -1.26499486 
1.24540838e-06 0.0776452795 -1.28977787 
-0.251622081 0.0776452795 -1.26499534 
-0.493575662 0.0776452795 -1.19159985 
-0.716561437 0.0776452795 -1.07241166 
-0.912010133 0.0776452795 -0.912011266 
-1.0724107 0.0776452795 -0.716562808 
-1.19159913 0.0776452795 -0.493577182 
-1.2649951 0.0776452795 -0.25162369 
-1.28977787 0.0776452795 -4.20262978e-07 
-1.26499522 0.0776452795 0.251622885 
-1.19159949 0.0776452795 0.493576437 
-1.07241118 0.0776452795 0.716562152 
-0.91201067 0.0776452795 0.91201067 
-0.716562152 0.0776452795 1.07241118 
-0.493576437 0.0776452795 1.19159937 
-0.251623034 0.0776452795 1.26499522 
9.73755192e-08 0.0776452795 1.28977787 
0.251623213 0.0776452795 1.2649951 
0.493576616 0.0776452795 1.19159937 
0.716562152 0.0776452795 1.07241118 
0.91201067 0.0776452795 0.91201067 
1.07241106 0.0776452795 0.716562212 
1.19159937 0.0776452795 0.493576646 
1.2649951 0.0776452795 0.251623183 
4 0 1 33 32 
4 1 2 34 33 
4 2 3 35 34 
4 3 4 36 35 
4 4 5 37 36 
4 5 6 38 37 
4 6 7 39 38 
4 7 8 40 39 
4 8 9 41 40 
4 9 10 42 41 
4 10 11 43 42 
4 11 12 44 43 
4 12 13 45 44 
4 13 14 46 45 
4 14 15 47 46 
4 15 16 48 47 
4 16 17 49 48 
4 17 18 50 49 
4 18 19 51 50 
4 19 20 52 51 
4 20 21 53 52 
4 21 22 54 53 
4 22 23 55 54 
4 23 24 56 55 
4 24 25 57 56 
4 25 26 58 57 
4 26 27 59 58 
4 27 28 60 59 
4 28 29 61 60 
4 29 30 62 61 
4 30 31 63 62 
4 31 0 32 63 
4 32 33 65 64 
4 33 34 66 65 
4 34 35 67 66 
4 35 36 68 67 
4 36 37 69 68 
4 37 38 70 69 
4 38 39 71 70 
4 39 40 72 71 
4 40 41 73 72 
4 41 42 74 73 
4 42 43 75 74 
4 43 44 76 75 
4 44 45 77 76 
4 45 46 78 77 
4 46 47 79 78 
4 47 48 80 79 
4 48 49 81 80 
4 49 50 82 81 
4 50 51 83 82 
4 51 52 84 83 
4 52 53 85 84 
4 53 54 86 85 
4 54 55 87 86 
4 55 56 88 87 
4 56 57 89 88 
4 57 58 90 89 
4 58 59 91 90 
4 59 60 92 91 
4 60 61 93 92 
4 61 62 94 93 
4 62 63 95 94 
4 63 32 64 95 
4 64 65 97 96 
4 65 66 98 97 
4 66 67 99 98 
4 67 68 100 99 
4 68 69 101 100 
4 69 70 102 101 
4 70 71 103 102 
4 71 72 104 103 
4 72 73 105 104 
4 73 74 106 105 
4 74 75 107 106 
4 75 76 108 107 
4 76 77 109 108 
4 77 78 110 109 
4 78 79 111 110 
4 79 80 112 111 
4 80 81 113 112 
4 81 82 114 113 
4 82 83 115 114 
4 83 84 116 115 
4 84 85 117 116 
4 85 86 118 117 
4 86 87 119 118 
4 87 88 120 119 
4 88 89 121 120 
4 89 90 122 121 
4 90 91 123 122 
4 91 92 124 123 
4 92 93 125 124 
4 93 94 126 125 
4 94 95 127 126 
4 95 64 96 127 
4 96 97 129 128 
4 97 98 130 129 
4 98 99 131 130 
4 99 100 132 131 
4 100 101 133 132 
4 101 102 134 133 
4 102 103 135 134 
4 103 104 136 135 
4 104 105 137 136 
4 105 106 138 137 
4 106 107 139 138 
4 107 108 140 139 
4 108 109 141 140 
4 109 110 142 141 
4 110 111 143 142 
4 111 112 144 143 
4 112 113 145 144 
4 113 114 146 145 
4 114 115 147 146 
4 115 116 148 147 
4 116 117 149 148 
4 117 118 150 149 
4 118 119 151 150 
4 119 120 152 151 
4 120 121 153 152 
4 121 122 154 153 
4 122 123 155 154 
4 123 124 156 155 
4 124 125 157 156 
4 125 126 158 157 
4 126 127 159 158 
4 127 96 128 159 
4 128 129 161 160 
4 129 130 162 161 
4 130 131 163 162 
4 131 132 164 163 
4 132 133 165 164 
4 133 134 166 165 
4 134 135 167 166 
4 135 136 168 167 
4 136 137 169 168 
4 137 138 170 169 
4 138 139 171 170 
4 139 140 172 171 
4 140 141 173 172 
4 141 142 174 173 
4 142 143 175 174 
4 143 144 176 175 
4 144 145 177 176 
4 145 146 178 177 
4 146 147 179 178 
4 147 148 180 179 
4 148 149 181 180 
4 149 150 182 181 
4 150 151 183 182 
4 151 152 184 183 
4 152 153 185 184 
4 153 154 186 185 
4 154 155 187 186 
4 155 156 188 187 
4 156 157 189 188 
4 157 158 190 189 
4 158 159 191 190 
4 159 128 160 191 
4 160 161 193 192 
4 161 162 194 193 
4 162 163 195 194 
4 163 164 196 195 
4 164 165 197 196 
4 165 166 198 197 
4 166 167 199 198 
4 167 168 200 199 
4 168 169 201 200 
4 169 170 202 201 
4 170 171 203 202 
4 171 172 204 203 
4 172 173 205 204 
4 173 174 206 205 
4 174 175 207 206 
4 175 176 208 207 
4 176 177 209 208 
4 177 178 210 209 
4 178 179 211 210 
4 179 180 212 211 
4 180 181 213 212 
4 181 182 214 213 
4 182 183 215 214 
4 183 184 216 215 
4 184 185 217 216 
4 185 186 218 217 
4 186 187 219 218 
4 187 188 220 219 
4 188 189 221 220 
4 189 190 222 221 
4 190 191 223 222 
4 191 160 192 223 
4 192 193 225 224 
4 193 194 226 225 
4 194 195 227 226 
4 195 196 228 227 
4 196 197 229 228 
4 197 198 230 229 
4 198 199 231 230 
4 199 200 232 231 
4 200 201 233 232 
4 201 202 234 233 
4 202 203 235 234 
4 203 204 236 235 
4 204 205 237 236 
4 205 206 238 237 
4 206 207 239 238 
4 207 208 240 239 
4 208 209 241 240 
4 209 210 242 241 
4 210 211 243 242 
4 211 212 244 243 
4 212 213 245 244 
4 213 214 246 245 
4 214 215 247 246 
4 215 216 248 247 
4 216 217 249 248 
4 217 218 250 249 
4 218 219 251 250 
4 219 220 252 251 
4 220 221 253 252 
4 221 222 254 253 
4 222 223 255 254 
4 223 192 224 255 
4 224 225 257 256 
4 225 226 258 257 
4 226 227 259 258 
4 227 228 260 259 
4 228 229 261 260 
4 229 230 262 261 
4 230 231 263 262 
4 231 232 264 263 
4 232 233 265 264 
4 233 234 266 265 
4 234 235 267 266 
4 235 236 268 267 
4 236 237 269 268 
4 237 238 270 269 
4 238 239 271 270 
4 239 240 272 271 
4 240 241 273 272 
4 241 242 274 273 
4 242 243 275 274 
4 243 244 276 275 
4 244 245 277 276 
4 245 246 278 277 
4 246 247 279 278 
4 247 248 280 279 
4 248 249 281 280 
4 249 250 282 281 
4 250 251 283 282 
4 251 252 284 283 
4 252 253 285 284 
4 253 254 286 285 
4 254 255 287 286 
4 255 224 256 287 
4 256 257 289 288 
4 257 258 290 289 
4 258 259 291 290 
4 259 260 292 291 
4 260 261 293 292 
4 261 262 294 293 
4 262 263 295 294 
4 263 264 296 295 
4 264 265 297 296 
4 265 266 298 297 
4 266 267 299 298 
4 267 268 300 299 
4 268 269 301 300 
4 269 270 302 301 
4 270 271 303 302 
4 271 272 304 303 
4 272 273 305 304 
4 273 274 306 305 
4 274 275 307 306 
4 275 276 308 307 
4 276 277 309 308 
4 277 278 310 309 
4 278 279 311 310 
4 279 280 312 311 
4 280 281 313 312 
4 281 282 314 313 
4 282 283 315 314 
4 283 284 316 315 
4 284 285 317 316 
4 285 286 318 317 
4 286 287 319 318 
4 287 256 288 319 
4 288 289 321 320 
4 289 290 322 321 
4 290 291 323 322 
4 291 292 324 323 
4 292 293 325 324 
4 293 294 326 325 
4 294 295 327 326 
4 295 296 328 327 
4 296 297 329 328 
4 297 298 330 329 
4 298 299 331 330 
4 299 300 332 331 
4 300 301 333 332 
4 301 302 334 333 
4 302 303 335 334 
4 303 304 336 335 
4 304 305 337 336 
4 305 306 338 337 
4 306 307 339 338 
4 307 308 340 339 
4 308 309 341 340 
4 309 310 342 341 
4 310 311 343 342 
4 311 312 344 343 
4 312 313 345 344 
4 313 314 346 345 
4 314 315 347 346 
4 315 316 348 347 
4 316 317 349 348 
4 317 318 350 349 
4 318 319 351 350 
4 319 288 320 351 
4 320 321 353 352 
4 321 322 354 353 
4 322 323 355 354 
4 323 324 356 355 
4 324 325 357 356 
4 325 326 358 357 
4 326 327 359 358 
4 327 328 360 359 
4 328 329 361 360 
4 329 330 362 361 
4 330 331 363 362 
4 331 332 364 363 
4 332 333 365 364 
4 333 334 366 365 
4 334 335 367 366 
4 335 336 368 367 
4 336 337 369 368 
4 337 338 370 369 
4 338 339 371 370 
4 339 340 372 371 
4 340 341 373 372 
4 341 342 374 373 
4 342 343 375 374 
4 343 344 376 375 
4 344 345 377 376 
4 345 346 378 377 
4 346 347 379 378 
4 347 348 380 379 
4 348 349 381 380 
4 349 350 382 381 
4 350 351 383 382 
4 351 320 352 383 
4 352 353 385 384 
4 353 354 386 385 
4 354 355 387 386 
4 355 356 388 387 
4 356 357 389 388 
4 357 358 390 389 
4 358 359 391 390 
4 359 360 392 391 
4 360 361 393 392 
4 361 362 394 393 
4 362 363 395 394 
4 363 364 396 395 
4 364 365 397 396 
4 365 366 398 397 
4 366 367 399 398 
4 367 368 400 399 
4 368 369 401 400 
4 369 370 402 401 
4 370 371 403 402 
4 371 372 404 403 
4 372 373 405 404 
4 373 374 406 405 
4 374 375 407 406 
4 375 376 408 407 
4 376 377 409 408 
4 377 378 410 409 
4 378 379 411 410 
4 379 380 412 411 
4 380 381 413 412 
4 381 382 414 413 
4 382 383 415 414 
4 383 352 384 415 
4 384 385 417 416 
4 385 386 418 417 
4 386 387 419 418 
4 387 388 420 419 
4 388 389 421 420 
4 389 390 422 421 
4 390 391 423 422 
4 391 392 424 423 
4 392 393 425 424 
4 393 394 426 425 
4 394 395 427 426 
4 395 396 428 427 
4 396 397 429 428 
4 397 398 430 429 
4 398 399 431 430 
4 399 400 432 431 
4 400 401 433 432 
4 401 402 434 433 
4 402 403 435 434 
4 403 404 436 435 
4 404 405 437 436 
4 405 406 438 437 
4 406 407 439 438 
4 407 408 440 439 
4 408 409 441 440 
4 409 410 442 441 
4 410 411 443 442 
4 411 412 444 443 
4 412 413 445 444 
4 413 414 446 445 
4 414 415 447 446 
4 415 384 416 447 
4 416 417 449 448 
4 417 418 450 449 
4 418 419 451 450 
4 419 420 452 451 
4 420 421 453 452 
4 421 422 454 453 
4 422 423 455 454 
4 423 424 456 455 
4 424 425 457 456 
4 425 426 458 457 
4 426 427 459 458 
4 427 428 460 459 
4 428 429 461 460 
4 429 430 462 461 
4 430 431 463 462 
4 431 432 464 463 
4 432 433 465 464 
4 433 434 466 465 
4 434 435 467 466 
4 435 436 468 467 
4 436 437 469 468 
4 437 438 470 469 
4 438 439 471 470 
4 439 440 472 471 
4 440 441 473 472 
4 441 442 474 473 
4 442 443 475 474 
4 443 444 476 475 
4 444 445 477 476 
4 445 446 478 477 
4 446 447 479 478 
4 447 416 448 479 
4 448 449 481 480 
4 449 450 482 481 
4 450 451 483 482 
4 451 452 484 483 
4 452 453 485 484 
4 453 454 486 485 
4 454 455 487 486 
4 455 456 488 487 
4 456 457 489 488 
4 457 458 490 489 
4 458 459 491 490 
4 459 460 492 491 
4 460 461 493 492 
4 461 462 494 493 
4 462 463 495 494 
4 463 464 496 495 
4 464 465 497 496 
4 465 466 498 497 
4 466 467 499 498 
4 467 468 500 499 
4 468 469 501 500 
4 469 470 502 501 
4 470 471 503 502 
4 471 472 504 503 
4 472 473 505 504 
4 473 474 506 505 
4 474 475 507 506 
4 475 476 508 507 
4 476 477 509 508 
4 477 478 510 509 
4 478 479 511 510 
4 479 448 480 511 
4 480 481 513 512 
4 481 482 514 513 
4 482 483 515 514 
4 483 484 516 515 
4 484 485 517 516 
4 485 486 518 517 
4 486 487 519 518 
4 487 488 520 519 
4 488 489 521 520 
4 489 490 522 521 
4 490 491 523 522 
4 491 492 524 523 
4 492 493 525 524 
4 493 494 526 525 
4 494 495 527 526 
4 495 496 528 527 
4 496 497 529 528 
4 497 498 530 529 
4 498 499 531 530 
4 499 500 532 531 
4 500 501 533 532 
4 501 502 534 533 
4 502 503 535 534 
4 503 504 536 535 
4 504 505 537 536 
4 505 506 538 537 
4 506 507 539 538 
4 507 508 540 539 
4 508 509 541 540 
4 509 510 542 541 
4 510 511 543 542 
4 511 480 512 543 
4 512 513 545 544 
4 513 514 546 545 
4 514 515 547 546 
4 515 516 548 547 
4 516 517 549 548 
4 517 518 550 549 
4 518 519 551 550 
4 519 520 552 551 
4 520 521 553 552 
4 521 522 554 553 
4 522 523 555 554 
4 523 524 556 555 
4 524 525 557 556 
4 525 526 558 557 
4 526 527 559 558 
4 527 528 560 559 
4 528 529 561 560 
4 529 530 562 561 
4 530 531 563 562 
4 531 532 564 563 
4 532 533 565 564 
4 533 534 566 565 
4 534 535 567 566 
4 535 536 568 567 
4 536 537 569 568 
4 537 538 570 569 
4 538 539 571 570 
4 539 540 572 571 
4 540 541 573 572 
4 541 542 574 573 
4 542 543 575 574 
4 543 512 544 575 
4 544 545 577 576 
4 545 546 578 577 
4 546 547 579 578 
4 547 548 580 579 
4 548 549 581 580 
4 549 550 582 581 
4 550 551 583 582 
4 551 552 584 583 
4 552 553 585 584 
4 553 554 586 585 
4 554 555 587 586 
4 555 556 588 587 
4 556 557 589 588 
4 557 558 590 589 
4 558 559 591 590 
4 559 560 592 591 
4 560 561 593 592 
4 561 562 594 593 
4 562 563 595 594 
4 563 564 596 595 
4 564 565 597 596 
4 565 566 598 597 
4 566 567 599 598 
4 567 568 600 599 
4 568 569 601 600 
4 569 570 602 601 
4 570 571 603 602 
4 571 572 604 603 
4 572 573 605 604 
4 573 574 606 605 
4 574 575 607 606 
4 575 544 576 607 
4 576 577 609 608 
4 577 578 610 609 
4 578 579 611 610 
4 579 580 612 611 
4 580 581 613 612 
4 581 582 614 613 
4 582 583 615 614 
4 583 584 616 615 
4 584 585 617 616 
4 585 586 618 617 
4 586 587 619 618 
4 587 588 620 619 
4 588 589 621 620 
4 589 590 622 621 
4 590 591 623 622 
4 591 592 624 623 
4 592 593 625 624 
4 593 594 626 625 
4 594 595 627 626 
4 595 596 628 627 
4 596 597 629 628 
4 597 598 630 629 
4 598 599 631 630 
4 599 600 632 631 
4 600 601 633 632 
4 601 602 634 633 
4 602 603 635 634 
4 603 604 636 635 
4 604 605 637 636 
4 605 606 638 637 
4 606 607 639 638 
4 607 576 608 639 
4 608 609 641 640 
4 609 610 642 641 
4 610 611 643 642 
4 611 612 644 643 
4 612 613 645 644 
4 613 614 646 645 
4 614 615 647 646 
4 615 616 648 647 
4 616 617 649 648 
4 617 618 650 649 
4 618 619 651 650 
4 619 620 652 651 
4 620 621 653 652 
4 621 622 654 653 
4 622 623 655 654 
4 623 624 656 655 
4 624 625 657 656 
4 625 626 658 657 
4 626 627 659 658 
4 627 628 660 659 
4 628 629 661 660 
4 629 630 662 661 
4 630 631 663 662 
4 631 632 664 663 
4 632 633 665 664 
4 633 634 666 665 
4 634 635 667 666 
4 635 636 668 667 
4 636 637 669 668 
4 637 638 670 669 
4 638 639 671 670 
4 639 608 640 671 
4 640 641 673 672 
4 641 642 674 673 
4 642 643 675 674 
4 643 644 676 675 
4 644 645 677 676 
4 645 646 678 677 
4 646 647 679 678 
4 647 648 680 679 
4 648 649 681 680 
4 649 650 682 681 
4 650 651 683 682 
4 651 652 684 683 
4 652 653 685 684 
4 653 654 686 685 
4 654 655 687 686 
4 655 656 688 687 
4 656 657 689 688 
4 657 658 690 689 
4 658 659 691 690 
4 659 660 692 691 
4 660 661 693 692 
4 661 662 694 693 
4 662 663 695 694 
4 663 664 696 695 
4 664 665 697 696 
4 665 666 698 697 
4 666 667 699 698 
4 667 668 700 699 
4 668 669 701 700 
4 669 670 702 701 
4 670 671 703 702 
4 671 640 672 703 
4 672 673 705 704 
4 673 674 706 705 
4 674 675 707 706 
4 675 676 708 707 
4 676 677 709 708 
4 677 678 710 709 
4 678 679 711 710 
4 679 680 712 711 
4 680 681 713 712 
4 681 682 714 713 
4 682 683 715 714 
4 683 684 716 715 
4 684 685 717 716 
4 685 686 718 717 
4 686 687 719 718 
4 687 688 720 719 
4 688 689 721 720 
4 689 690 722 721 
4 690 691 723 722 
4 691 692 724 723 
4 692 693 725 724 
4 693 694 726 725 
4 694 695 727 726 
4 695 696 728 727 
4 696 697 729 728 
4 697 698 730 729 
4 698 699 731 730 
4 699 700 732 731 
4 700 701 733 732 
4 701 702 734 733 
4 702 703 735 734 
4 703 672 704 735 
4 704 705 737 736 
4 705 706 738 737 
4 706 707 739 738 
4 707 708 740 739 
4 708 709 741 740 
4 709 710 742 741 
4 710 711 743 742 
4 711 712 744 743 
4 712 713 745 744 
4 713 714 746 745 
4 714 715 747 746 
4 715 716 748 747 
4 716 717 749 748 
4 717 718 750 749 
4 718 719 751 750 
4 719 720 752 751 
4 720 721 753 752 
4 721 722 754 753 
4 722 723 755 754 
4 723 724 756 755 
4 724 725 757 756 
4 725 726 758 757 
4 726 727 759 758 
4 727 728 760 759 
4 728 729 761 760 
4 729 730 762 761 
4 730 731 763 762 
4 731 732 764 763 
4 732 733 765 764 
4 733 734 766 765 
4 734 735 767 766 
4 735 704 736 767 
4 736 737 1 0 
4 737 738 2 1 
4 738 739 3 2 
4 739 740 4 3 
4 740 741 5 4 
4 741 742 6 5 
4 742 743 7 6 
4 743 744 8 7 
4 744 745 9 8 
4 745 746 10 9 
4 746 747 11 10 
4 747 748 12 11 
4 748 749 13 12 
4 749 750 14 13 
4 750 751 15 14 
4 751 752 16 15 
4 752 753 17 16 
4 753 754 18 17 
4 754 755 19 18 
4 755 756 20 19 
4 756 757 21 20 
4 757 758 22 21 
4 758 759 23 22 
4 759 760 24 23 
4 760 761 25 24 
4 761 762 26 25 
4 762 763 27 26 
4 763 764 28 27 
4 764 765 29 28 
4 765 766 30 29 
4 766 767 31 30 
4 767 736 0 31 
