ply
format ascii 1.0
comment created by gply, a Houdini tool.
comment converted from .[b]geo
comment for more information about Houdini, try:
comment www.sidefx.com
element vertex 144
property float x
property float y
property float z
element face 288
property list uchar int vertex_indices
property int MODEL
end_header
1.22601295 0.507812977 0.227051005 
1.30264294 0.53955102 0 
1.40997303 0 0 
1.327057 0 0.227051005 
1.032318 0.427581996 0.347321004 
1.117401 0 0.347321004 
0.812622011 0.336578012 0.304259986 
0.879577994 0 0.304259986 
0.670166016 0.27758801 0.118073002 
0.725403011 0 0.118073002 
0.672028005 0.278351009 -0.123627 
0.727416992 0 -0.123627 
0.817351997 0.338530988 -0.307190001 
0.884705007 0 -0.307190001 
1.03771996 0.429839998 -0.346282989 
1.12322998 0 -0.346282989 
1.22952294 0.509276986 -0.222504005 
1.33084095 0 -0.222504005 
0.938354015 0.938323975 0.227051005 
0.996978998 0.996978998 0 
0.790099978 0.790069997 0.347321004 
0.621948004 0.621918023 0.304259986 
0.512908995 0.512908995 0.118073002 
0.514343023 0.514312983 -0.123627 
0.625580013 0.625549018 -0.307190001 
0.794219971 0.794219971 -0.346282989 
0.941009998 0.941009998 -0.222504005 
0.507843018 1.22598302 0.227051005 
0.53955102 1.30261195 0 
0.427581996 1.03225696 0.347321004 
0.336578012 0.812560976 0.304259986 
0.277556986 0.670135021 0.118073002 
0.278351009 0.67196703 -0.123627 
0.338562012 0.817322016 -0.307190001 
0.429809988 1.03768897 -0.346282989 
0.509247005 1.22946203 -0.222504005 
0 1.32699597 0.227051005 
0 1.40991199 0 
0 1.11731005 0.347321004 
0 0.879486024 0.304259986 
0 0.725310981 0.118073002 
0 0.727325022 -0.123627 
0 0.884643972 -0.307190001 
0 1.12316895 -0.346282989 
0 1.33074999 -0.222504005 
-0.507812977 1.22598302 0.227051005 
-0.539520025 1.30258203 0 
-0.427551001 1.03225696 0.347321004 
-0.336548001 0.812530994 0.304259986 
-0.277556986 0.670073986 0.118073002 
-0.278320014 0.671935976 -0.123627 
-0.338530988 0.817291021 -0.307190001 
-0.429809988 1.03765905 -0.346282989 
-0.509247005 1.22943103 -0.222504005 
-0.93829298 0.938323975 0.227051005 
-0.996918023 0.996948004 0 
-0.790009022 0.790039003 0.347321004 
-0.621856987 0.621887028 0.304259986 
-0.51284802 0.51284802 0.118073002 
-0.514252007 0.514252007 -0.123627 
-0.625518978 0.625518978 -0.307190001 
-0.794158995 0.794188976 -0.346282989 
-0.940948009 0.940948009 -0.222504005 
-1.22592199 0.507812977 0.227051005 
-1.30252099 0.53955102 0 
-1.03219604 0.427551001 0.347321004 
-0.8125 0.336548001 0.304259986 
-0.670044005 0.277527004 0.118073002 
-0.671875 0.278290004 -0.123627 
-0.817260981 0.338501006 -0.307190001 
-1.03762805 0.429809988 -0.346282989 
-1.22940099 0.509216011 -0.222504005 
-1.32693505 0 0.227051005 
-1.40982103 0 0 
-1.11721802 0 0.347321004 
-0.879424989 0 0.304259986 
-0.725220025 0 0.118073002 
-0.727203012 0 -0.123627 
-0.884582996 0 -0.307190001 
-1.12310803 0 -0.346282989 
-1.33065796 0 -0.222504005 
-1.22592199 -0.507781982 0.227051005 
-1.30249 -0.539489985 0 
-1.032166 -0.42752099 0.347321004 
-0.812469006 -0.336517006 0.304259986 
-0.670013011 -0.277527004 0.118073002 
-0.671844006 -0.278259009 -0.123627 
-0.817229986 -0.338501006 -0.307190001 
-1.03759801 -0.429778993 -0.346282989 
-1.22933996 -0.509216011 -0.222504005 
-0.938262999 -0.938262999 0.227051005 
-0.996887028 -0.996856987 0 
-0.789978027 -0.789947987 0.347321004 
-0.621825993 -0.621796012 0.304259986 
-0.512786984 -0.512786984 0.118073002 
-0.514190972 -0.514159977 -0.123627 
-0.625458002 -0.625458002 -0.307190001 
-0.794128001 -0.794128001 -0.346282989 
-0.940886974 -0.940886974 -0.222504005 
-0.507781982 -1.22589099 0.227051005 
-0.539520025 -1.30245996 0 
-0.42752099 -1.03210402 0.347321004 
-0.336517006 -0.81240797 0.304259986 
-0.27749601 -0.669983029 0.118073002 
-0.278259009 -0.67178297 -0.123627 
-0.338470012 -0.817200005 -0.307190001 
-0.429778993 -1.03756702 -0.346282989 
-0.509186029 -1.22930896 -0.222504005 
0 -1.32687402 0.227051005 
0 -1.40976 0 
0 -1.11712599 0.347321004 
0 -0.879333019 0.304259986 
0 -0.725158989 0.118073002 
0 -0.727111995 -0.123627 
0 -0.884491026 -0.307190001 
0 -1.12304699 -0.346282989 
0 -1.33056605 -0.222504005 
0.507750988 -1.22586095 0.227051005 
0.539489985 -1.30242896 0 
0.427489996 -1.03207397 0.347321004 
0.336486995 -0.812377989 0.304259986 
0.27749601 -0.669951975 0.118073002 
0.278228998 -0.671752989 -0.123627 
0.338470012 -0.81713903 -0.307190001 
0.429749012 -1.03753698 -0.346282989 
0.509154975 -1.22927904 -0.222504005 
0.938202024 -0.938232005 0.227051005 
0.996825993 -0.996825993 0 
0.789885998 -0.789916992 0.347321004 
0.621734977 -0.621765018 0.304259986 
0.512726009 -0.51275599 0.118073002 
0.514099002 -0.514129996 -0.123627 
0.625397027 -0.625397027 -0.307190001 
0.794067025 -0.79409802 -0.346282989 
0.940796018 -0.940856993 -0.222504005 
1.22582996 -0.507750988 0.227051005 
1.30239904 -0.53945899 0 
1.03204298 -0.427489996 0.347321004 
0.812317014 -0.336486995 0.304259986 
0.669891 -0.27749601 0.118073002 
0.671692014 -0.278228998 -0.123627 
0.817107975 -0.338440001 -0.307190001 
1.03750598 -0.429749012 -0.346282989 
1.22921801 -0.509186029 -0.222504005 
3 0 2 1 0 
3 0 3 2 0 
3 4 3 0 0 
3 4 5 3 0 
3 6 5 4 0 
3 6 7 5 0 
3 8 7 6 0 
3 8 9 7 0 
3 10 9 8 0 
3 10 11 9 0 
3 12 11 10 0 
3 12 13 11 0 
3 14 13 12 0 
3 14 15 13 0 
3 16 15 14 0 
3 16 17 15 0 
3 2 16 1 0 
3 17 16 2 0 
3 18 1 19 0 
3 18 0 1 0 
3 20 0 18 0 
3 20 4 0 0 
3 21 4 20 0 
3 21 6 4 0 
3 22 6 21 0 
3 22 8 6 0 
3 23 8 22 0 
3 23 10 8 0 
3 24 10 23 0 
3 24 12 10 0 
3 25 12 24 0 
3 25 14 12 0 
3 26 14 25 0 
3 26 16 14 0 
3 26 19 1 0 
3 26 1 16 0 
3 27 19 28 0 
3 27 18 19 0 
3 29 18 27 0 
3 29 20 18 0 
3 30 20 29 0 
3 30 21 20 0 
3 31 21 30 0 
3 31 22 21 0 
3 32 22 31 0 
3 32 23 22 0 
3 33 23 32 0 
3 33 24 23 0 
3 34 24 33 0 
3 34 25 24 0 
3 35 25 34 0 
3 35 26 25 0 
3 35 28 19 0 
3 35 19 26 0 
3 36 28 37 0 
3 36 27 28 0 
3 38 27 36 0 
3 38 29 27 0 
3 39 29 38 0 
3 39 30 29 0 
3 40 30 39 0 
3 40 31 30 0 
3 41 31 40 0 
3 41 32 31 0 
3 42 32 41 0 
3 42 33 32 0 
3 43 33 42 0 
3 43 34 33 0 
3 44 34 43 0 
3 44 35 34 0 
3 44 37 28 0 
3 44 28 35 0 
3 45 37 46 0 
3 45 36 37 0 
3 47 36 45 0 
3 47 38 36 0 
3 48 38 47 0 
3 48 39 38 0 
3 49 39 48 0 
3 49 40 39 0 
3 50 40 49 0 
3 50 41 40 0 
3 51 41 50 0 
3 51 42 41 0 
3 52 42 51 0 
3 52 43 42 0 
3 53 43 52 0 
3 53 44 43 0 
3 53 46 37 0 
3 53 37 44 0 
3 54 46 55 0 
3 54 45 46 0 
3 56 45 54 0 
3 56 47 45 0 
3 57 47 56 0 
3 57 48 47 0 
3 58 48 57 0 
3 58 49 48 0 
3 59 49 58 0 
3 59 50 49 0 
3 60 50 59 0 
3 60 51 50 0 
3 61 51 60 0 
3 61 52 51 0 
3 62 52 61 0 
3 62 53 52 0 
3 62 55 46 0 
3 62 46 53 0 
3 63 55 64 0 
3 63 54 55 0 
3 65 54 63 0 
3 65 56 54 0 
3 66 56 65 0 
3 66 57 56 0 
3 67 57 66 0 
3 67 58 57 0 
3 68 58 67 0 
3 68 59 58 0 
3 69 59 68 0 
3 69 60 59 0 
3 70 60 69 0 
3 70 61 60 0 
3 71 61 70 0 
3 71 62 61 0 
3 71 64 55 0 
3 71 55 62 0 
3 72 64 73 0 
3 72 63 64 0 
3 74 63 72 0 
3 74 65 63 0 
3 75 65 74 0 
3 75 66 65 0 
3 76 66 75 0 
3 76 67 66 0 
3 77 67 76 0 
3 77 68 67 0 
3 78 68 77 0 
3 78 69 68 0 
3 79 69 78 0 
3 79 70 69 0 
3 80 70 79 0 
3 80 71 70 0 
3 80 73 64 0 
3 80 64 71 0 
3 81 73 82 0 
3 81 72 73 0 
3 83 72 81 0 
3 83 74 72 0 
3 84 74 83 0 
3 84 75 74 0 
3 85 75 84 0 
3 85 76 75 0 
3 86 76 85 0 
3 86 77 76 0 
3 87 77 86 0 
3 87 78 77 0 
3 88 78 87 0 
3 88 79 78 0 
3 89 79 88 0 
3 89 80 79 0 
3 89 82 73 0 
3 89 73 80 0 
3 90 82 91 0 
3 90 81 82 0 
3 92 81 90 0 
3 92 83 81 0 
3 93 83 92 0 
3 93 84 83 0 
3 94 84 93 0 
3 94 85 84 0 
3 95 85 94 0 
3 95 86 85 0 
3 96 86 95 0 
3 96 87 86 0 
3 97 87 96 0 
3 97 88 87 0 
3 98 88 97 0 
3 98 89 88 0 
3 98 91 82 0 
3 98 82 89 0 
3 99 91 100 0 
3 99 90 91 0 
3 101 90 99 0 
3 101 92 90 0 
3 102 92 101 0 
3 102 93 92 0 
3 103 93 102 0 
3 103 94 93 0 
3 104 94 103 0 
3 104 95 94 0 
3 105 95 104 0 
3 105 96 95 0 
3 106 96 105 0 
3 106 97 96 0 
3 107 97 106 0 
3 107 98 97 0 
3 107 100 91 0 
3 107 91 98 0 
3 108 100 109 0 
3 108 99 100 0 
3 110 99 108 0 
3 110 101 99 0 
3 111 101 110 0 
3 111 102 101 0 
3 112 102 111 0 
3 112 103 102 0 
3 113 103 112 0 
3 113 104 103 0 
3 114 104 113 0 
3 114 105 104 0 
3 115 105 114 0 
3 115 106 105 0 
3 116 106 115 0 
3 116 107 106 0 
3 116 109 100 0 
3 116 100 107 0 
3 117 109 118 0 
3 117 108 109 0 
3 119 108 117 0 
3 119 110 108 0 
3 120 110 119 0 
3 120 111 110 0 
3 121 111 120 0 
3 121 112 111 0 
3 122 112 121 0 
3 122 113 112 0 
3 123 113 122 0 
3 123 114 113 0 
3 124 114 123 0 
3 124 115 114 0 
3 125 115 124 0 
3 125 116 115 0 
3 125 118 109 0 
3 125 109 116 0 
3 126 118 127 0 
3 126 117 118 0 
3 128 117 126 0 
3 128 119 117 0 
3 129 119 128 0 
3 129 120 119 0 
3 130 120 129 0 
3 130 121 120 0 
3 131 121 130 0 
3 131 122 121 0 
3 132 122 131 0 
3 132 123 122 0 
3 133 123 132 0 
3 133 124 123 0 
3 134 124 133 0 
3 134 125 124 0 
3 134 127 118 0 
3 134 118 125 0 
3 135 127 136 0 
3 135 126 127 0 
3 137 126 135 0 
3 137 128 126 0 
3 138 128 137 0 
3 138 129 128 0 
3 139 129 138 0 
3 139 130 129 0 
3 140 130 139 0 
3 140 131 130 0 
3 141 131 140 0 
3 141 132 131 0 
3 142 132 141 0 
3 142 133 132 0 
3 143 133 142 0 
3 143 134 133 0 
3 143 136 127 0 
3 143 127 134 0 
3 136 2 135 0 
3 135 2 3 0 
3 2 136 143 0 
3 2 143 17 0 
3 135 3 137 0 
3 137 3 5 0 
3 137 5 138 0 
3 138 5 7 0 
3 138 7 139 0 
3 139 7 9 0 
3 139 9 140 0 
3 140 9 11 0 
3 140 11 141 0 
3 141 11 13 0 
3 141 13 142 0 
3 142 13 15 0 
3 142 15 143 0 
3 143 15 17 0 
