ply
format ascii 1.0
comment created by gply, a Houdini tool.
comment converted from .[b]geo
comment for more information about Houdini, try:
comment www.sidefx.com
element vertex 288
property float x
property float y
property float z
element face 576
property list uchar int vertex_indices
end_header
1.5 -4.37113883e-08 -1.1682431e-06 
1.44888842 -4.37113883e-08 -0.388229638 
1.29903769 -4.37113883e-08 -0.750000894 
1.06065953 -4.37113883e-08 -1.06066084 
0.749999225 -4.37113883e-08 -1.29903853 
0.38822782 -4.37113883e-08 -1.4488889 
-6.97368421e-07 -4.37113883e-08 -1.5 
-0.388229132 -4.37113883e-08 -1.44888854 
-0.750000477 -4.37113883e-08 -1.29903781 
-1.06066084 -4.37113883e-08 -1.06065965 
-1.29903841 -4.37113883e-08 -0.749999404 
-1.4488889 -4.37113883e-08 -0.38822794 
-1.5 -4.37113883e-08 5.84121551e-07 
-1.44888866 -4.37113883e-08 0.388229072 
-1.29903793 -4.37113883e-08 0.750000358 
-1.06065989 -4.37113883e-08 1.06066036 
-0.749999762 -4.37113883e-08 1.29903829 
-0.388228387 -4.37113883e-08 1.44888878 
1.13246855e-07 -4.37113883e-08 1.5 
0.388228595 -4.37113883e-08 1.44888878 
0.74999994 -4.37113883e-08 1.29903817 
1.06066012 -4.37113883e-08 1.06066012 
1.29903805 -4.37113883e-08 0.75 
1.44888878 -4.37113883e-08 0.388228565 
1.4330126 -0.250000089 -1.11607142e-06 
1.38418365 -0.250000089 -0.370891988 
1.24102485 -0.250000089 -0.716507137 
1.01329231 -0.250000089 -1.01329362 
0.716505587 -0.250000089 -1.24102569 
0.37089023 -0.250000089 -1.384184 
-6.66225162e-07 -0.250000089 -1.4330126 
-0.370891511 -0.250000089 -1.38418365 
-0.71650672 -0.250000089 -1.24102509 
-1.0132935 -0.250000089 -1.01329243 
-1.24102569 -0.250000089 -0.716505706 
-1.384184 -0.250000089 -0.370890349 
-1.4330126 -0.250000089 5.58035708e-07 
-1.38418376 -0.250000089 0.370891422 
-1.24102509 -0.250000089 0.71650666 
-1.01329267 -0.250000089 1.01329315 
-0.716506064 -0.250000089 1.24102545 
-0.370890766 -0.250000089 1.384184 
1.08189447e-07 -0.250000089 1.4330126 
0.370891005 -0.250000089 1.38418388 
0.716506243 -0.250000089 1.24102533 
1.01329291 -0.250000089 1.01329291 
1.24102533 -0.250000089 0.716506302 
1.38418388 -0.250000089 0.370890945 
1.25 -0.433012724 -9.73535862e-07 
1.207407 -0.433012724 -0.323524714 
1.08253133 -0.433012724 -0.625000715 
0.88388294 -0.433012724 -0.883884072 
0.624999344 -0.433012724 -1.08253217 
0.323523164 -0.433012724 -1.20740747 
-5.81140341e-07 -0.433012724 -1.25 
-0.323524296 -0.433012724 -1.20740712 
-0.625000358 -0.433012724 -1.08253145 
-0.883883953 -0.433012724 -0.883882999 
-1.08253205 -0.433012724 -0.624999464 
-1.20740747 -0.433012724 -0.323523283 
-1.25 -0.433012724 4.86767931e-07 
-1.20740724 -0.433012724 0.323524207 
-1.08253157 -0.433012724 0.625000298 
-0.883883238 -0.433012724 0.883883715 
-0.624999821 -0.433012724 1.08253193 
-0.323523641 -0.433012724 1.20740736 
9.43723748e-08 -0.433012724 1.25 
0.323523849 -0.433012724 1.20740724 
0.62499994 -0.433012724 1.08253181 
0.883883476 -0.433012724 0.883883476 
1.08253169 -0.433012724 0.625 
1.20740724 -0.433012724 0.323523819 
1 -0.5 -7.78828735e-07 
0.965925634 -0.5 -0.258819759 
0.86602509 -0.5 -0.500000596 
0.707106352 -0.5 -0.707107246 
0.499999493 -0.5 -0.866025686 
0.258818537 -0.5 -0.965925932 
-4.6491229e-07 -0.5 -1 
-0.258819431 -0.5 -0.965925694 
-0.500000298 -0.5 -0.866025209 
-0.707107186 -0.5 -0.707106411 
-0.866025627 -0.5 -0.499999583 
-0.965925932 -0.5 -0.258818626 
-1 -0.5 3.89414367e-07 
-0.965925753 -0.5 0.258819371 
-0.866025269 -0.5 0.500000238 
-0.70710659 -0.5 0.707106948 
-0.499999851 -0.5 0.866025507 
-0.258818924 -0.5 0.965925872 
7.54979013e-08 -0.5 1 
0.258819073 -0.5 0.965925813 
0.49999997 -0.5 0.866025448 
0.707106769 -0.5 0.707106769 
0.866025388 -0.5 0.5 
0.965925813 -0.5 0.258819044 
0.75000006 -0.433012724 -5.84121608e-07 
0.72444427 -0.433012724 -0.194114834 
0.649518847 -0.433012724 -0.375000477 
0.530329823 -0.433012724 -0.530330479 
0.374999642 -0.433012724 -0.649519324 
0.194113925 -0.433012724 -0.724444509 
-3.48684239e-07 -0.433012724 -0.75000006 
-0.194114596 -0.433012724 -0.72444433 
-0.375000268 -0.433012724 -0.649518967 
-0.53033042 -0.433012724 -0.530329823 
-0.649519265 -0.433012724 -0.374999702 
-0.724444509 -0.433012724 -0.194113985 
-0.75000006 -0.433012724 2.92060804e-07 
-0.724444389 -0.433012724 0.194114551 
-0.649519026 -0.433012724 0.375000209 
-0.530330002 -0.433012724 0.530330241 
-0.374999911 -0.433012724 0.649519205 
-0.194114208 -0.433012724 0.724444449 
5.66234313e-08 -0.433012724 0.75000006 
0.194114327 -0.433012724 0.724444389 
0.375 -0.433012724 0.649519145 
0.530330122 -0.433012724 0.530330122 
0.649519086 -0.433012724 0.37500003 
0.724444389 -0.433012724 0.194114298 
0.566987336 -0.250000089 -4.41586025e-07 
0.547667623 -0.250000089 -0.14674753 
0.491025269 -0.250000089 -0.283493996 
0.400920361 -0.250000089 -0.400920868 
0.28349337 -0.250000089 -0.491025597 
0.146746829 -0.250000089 -0.547667742 
-2.63599389e-07 -0.250000089 -0.566987336 
-0.146747336 -0.250000089 -0.547667623 
-0.283493847 -0.250000089 -0.491025329 
-0.400920808 -0.250000089 -0.400920391 
-0.491025567 -0.250000089 -0.283493429 
-0.547667742 -0.250000089 -0.146746889 
-0.566987336 -0.250000089 2.20793012e-07 
-0.547667682 -0.250000089 0.146747306 
-0.491025358 -0.250000089 0.283493817 
-0.40092048 -0.250000089 0.400920689 
-0.283493578 -0.250000089 0.491025507 
-0.146747053 -0.250000089 0.547667742 
4.28063522e-08 -0.250000089 0.566987336 
0.146747142 -0.250000089 0.547667682 
0.283493638 -0.250000089 0.491025448 
0.40092057 -0.250000089 0.40092057 
0.491025418 -0.250000089 0.283493668 
0.547667682 -0.250000089 0.146747127 
0.5 -1.50995803e-07 -3.89414367e-07 
0.482962817 -1.50995803e-07 -0.129409879 
0.433012545 -1.50995803e-07 -0.250000298 
0.353553176 -1.50995803e-07 -0.353553623 
0.249999747 -1.50995803e-07 -0.433012843 
0.129409268 -1.50995803e-07 -0.482962966 
-2.32456145e-07 -1.50995803e-07 -0.5 
-0.129409716 -1.50995803e-07 -0.482962847 
-0.250000149 -1.50995803e-07 -0.433012605 
-0.353553593 -1.50995803e-07 -0.353553206 
-0.433012813 -1.50995803e-07 -0.249999791 
-0.482962966 -1.50995803e-07 -0.129409313 
-0.5 -1.50995803e-07 1.94707184e-07 
-0.482962877 -1.50995803e-07 0.129409686 
-0.433012635 -1.50995803e-07 0.250000119 
-0.353553295 -1.50995803e-07 0.353553474 
-0.249999925 -1.50995803e-07 0.433012754 
-0.129409462 -1.50995803e-07 0.482962936 
3.77489506e-08 -1.50995803e-07 0.5 
0.129409537 -1.50995803e-07 0.482962906 
0.249999985 -1.50995803e-07 0.433012724 
0.353553385 -1.50995803e-07 0.353553385 
0.433012694 -1.50995803e-07 0.25 
0.482962906 -1.50995803e-07 0.129409522 
0.566987157 0.249999821 -4.41585883e-07 
0.547667444 0.249999821 -0.146747485 
0.49102509 0.249999821 -0.283493906 
0.400920212 0.249999821 -0.400920719 
0.28349328 0.249999821 -0.491025448 
0.146746784 0.249999821 -0.547667623 
-2.63599304e-07 0.249999821 -0.566987157 
-0.146747291 0.249999821 -0.547667444 
-0.283493757 0.249999821 -0.49102518 
-0.400920689 0.249999821 -0.400920242 
-0.491025418 0.249999821 -0.28349334 
-0.547667623 0.249999821 -0.146746844 
-0.566987157 0.249999821 2.20792941e-07 
-0.547667503 0.249999821 0.146747261 
-0.491025209 0.249999821 0.283493727 
-0.400920361 0.249999821 0.40092057 
-0.283493489 0.249999821 0.491025329 
-0.146747008 0.249999821 0.547667563 
4.28063416e-08 0.249999821 0.566987157 
0.146747097 0.249999821 0.547667503 
0.283493549 0.249999821 0.491025299 
0.400920451 0.249999821 0.400920451 
0.491025269 0.249999821 0.283493578 
0.547667503 0.249999821 0.146747068 
0.749999762 0.433012575 -5.84121381e-07 
0.724443972 0.433012575 -0.19411476 
0.649518609 0.433012575 -0.375000328 
0.530329585 0.433012575 -0.530330241 
0.374999493 0.433012575 -0.649519086 
0.194113836 0.433012575 -0.724444211 
-3.48684097e-07 0.433012575 -0.749999762 
-0.194114506 0.433012575 -0.724444032 
-0.375000089 0.433012575 -0.649518728 
-0.530330241 0.433012575 -0.530329645 
-0.649519026 0.433012575 -0.374999583 
-0.724444211 0.433012575 -0.19411391 
-0.749999762 0.433012575 2.9206069e-07 
-0.724444091 0.433012575 0.194114462 
-0.649518728 0.433012575 0.37500006 
-0.530329764 0.433012575 0.530330062 
-0.374999762 0.433012575 0.649518907 
-0.194114134 0.433012575 0.724444151 
5.66234064e-08 0.433012575 0.749999762 
0.194114238 0.433012575 0.724444151 
0.374999851 0.433012575 0.649518907 
0.530329883 0.433012575 0.530329883 
0.649518847 0.433012575 0.374999881 
0.724444151 0.433012575 0.194114223 
0.999999702 0.5 -7.78828507e-07 
0.965925336 0.5 -0.258819669 
0.866024852 0.5 -0.500000417 
0.707106113 0.5 -0.707107008 
0.499999344 0.5 -0.866025448 
0.258818448 0.5 -0.965925634 
-4.64912148e-07 0.5 -0.999999702 
-0.258819342 0.5 -0.965925395 
-0.500000119 0.5 -0.866024971 
-0.707106948 0.5 -0.707106173 
-0.866025388 0.5 -0.499999434 
-0.965925634 0.5 -0.258818537 
-0.999999702 0.5 3.89414254e-07 
-0.965925455 0.5 0.258819282 
-0.866025031 0.5 0.50000006 
-0.707106352 0.5 0.707106709 
-0.499999702 0.5 0.866025269 
-0.258818835 0.5 0.965925574 
7.54978799e-08 0.5 0.999999702 
0.258818984 0.5 0.965925515 
0.499999821 0.5 0.866025209 
0.707106531 0.5 0.707106531 
0.86602515 0.5 0.499999851 
0.965925515 0.5 0.258818954 
1.24999964 0.433012873 -9.73535634e-07 
1.20740664 0.433012873 -0.323524594 
1.08253109 0.433012873 -0.625000536 
0.883882701 0.433012873 -0.883883834 
0.624999166 0.433012873 -1.08253181 
0.323523074 0.433012873 -1.20740712 
-5.81140171e-07 0.433012873 -1.24999964 
-0.323524207 0.433012873 -1.20740676 
-0.625000179 0.433012873 -1.08253121 
-0.883883715 0.433012873 -0.883882761 
-1.08253169 0.433012873 -0.624999285 
-1.20740712 0.433012873 -0.323523194 
-1.24999964 0.433012873 4.86767817e-07 
-1.20740688 0.433012873 0.323524117 
-1.08253133 0.433012873 0.625000119 
-0.883882999 0.433012873 0.883883417 
-0.624999642 0.433012873 1.08253157 
-0.323523551 0.433012873 1.207407 
9.43723464e-08 0.433012873 1.24999964 
0.32352376 0.433012873 1.20740688 
0.624999762 0.433012873 1.08253145 
0.883883238 0.433012873 0.883883238 
1.08253145 0.433012873 0.624999821 
1.20740688 0.433012873 0.3235237 
1.43301249 0.250000358 -1.1160713e-06 
1.38418353 0.250000358 -0.370891958 
1.24102473 0.250000358 -0.716507077 
1.01329219 0.250000358 -1.0132935 
0.716505527 0.250000358 -1.24102557 
0.3708902 0.250000358 -1.38418388 
-6.66225105e-07 0.250000358 -1.43301249 
-0.370891482 0.250000358 -1.38418353 
-0.71650666 0.250000358 -1.24102497 
-1.01329339 0.250000358 -1.01329231 
-1.24102557 0.250000358 -0.716505647 
-1.38418388 0.250000358 -0.370890319 
-1.43301249 0.250000358 5.58035651e-07 
-1.38418365 0.250000358 0.370891392 
-1.24102497 0.250000358 0.7165066 
-1.01329255 0.250000358 1.01329303 
-0.716506004 0.250000358 1.24102533 
-0.370890737 0.250000358 1.38418388 
1.08189433e-07 0.250000358 1.43301249 
0.370890975 0.250000358 1.38418376 
0.716506183 0.250000358 1.24102533 
1.01329279 0.250000358 1.01329279 
1.24102521 0.250000358 0.716506243 
1.38418376 0.250000358 0.370890915 
3 0 1 25 
3 1 2 26 
3 2 3 27 
3 3 4 28 
3 4 5 29 
3 5 6 30 
3 6 7 31 
3 7 8 32 
3 8 9 33 
3 9 10 34 
3 10 11 35 
3 11 12 36 
3 12 13 37 
3 13 14 38 
3 14 15 39 
3 15 16 40 
3 16 17 41 
3 17 18 42 
3 18 19 43 
3 19 20 44 
3 20 21 45 
3 21 22 46 
3 22 23 47 
3 23 0 24 
3 24 25 49 
3 25 26 50 
3 26 27 51 
3 27 28 52 
3 28 29 53 
3 29 30 54 
3 30 31 55 
3 31 32 56 
3 32 33 57 
3 33 34 58 
3 34 35 59 
3 35 36 60 
3 36 37 61 
3 37 38 62 
3 38 39 63 
3 39 40 64 
3 40 41 65 
3 41 42 66 
3 42 43 67 
3 43 44 68 
3 44 45 69 
3 45 46 70 
3 46 47 71 
3 47 24 48 
3 48 49 73 
3 49 50 74 
3 50 51 75 
3 51 52 76 
3 52 53 77 
3 53 54 78 
3 54 55 79 
3 55 56 80 
3 56 57 81 
3 57 58 82 
3 58 59 83 
3 59 60 84 
3 60 61 85 
3 61 62 86 
3 62 63 87 
3 63 64 88 
3 64 65 89 
3 65 66 90 
3 66 67 91 
3 67 68 92 
3 68 69 93 
3 69 70 94 
3 70 71 95 
3 71 48 72 
3 72 73 97 
3 73 74 98 
3 74 75 99 
3 75 76 100 
3 76 77 101 
3 77 78 102 
3 78 79 103 
3 79 80 104 
3 80 81 105 
3 81 82 106 
3 82 83 107 
3 83 84 108 
3 84 85 109 
3 85 86 110 
3 86 87 111 
3 87 88 112 
3 88 89 113 
3 89 90 114 
3 90 91 115 
3 91 92 116 
3 92 93 117 
3 93 94 118 
3 94 95 119 
3 95 72 96 
3 96 97 121 
3 97 98 122 
3 98 99 123 
3 99 100 124 
3 100 101 125 
3 101 102 126 
3 102 103 127 
3 103 104 128 
3 104 105 129 
3 105 106 130 
3 106 107 131 
3 107 108 132 
3 108 109 133 
3 109 110 134 
3 110 111 135 
3 111 112 136 
3 112 113 137 
3 113 114 138 
3 114 115 139 
3 115 116 140 
3 116 117 141 
3 117 118 142 
3 118 119 143 
3 119 96 120 
3 120 121 145 
3 121 122 146 
3 122 123 147 
3 123 124 148 
3 124 125 149 
3 125 126 150 
3 126 127 151 
3 127 128 152 
3 128 129 153 
3 129 130 154 
3 130 131 155 
3 131 132 156 
3 132 133 157 
3 133 134 158 
3 134 135 159 
3 135 136 160 
3 136 137 161 
3 137 138 162 
3 138 139 163 
3 139 140 164 
3 140 141 165 
3 141 142 166 
3 142 143 167 
3 143 120 144 
3 144 145 169 
3 145 146 170 
3 146 147 171 
3 147 148 172 
3 148 149 173 
3 149 150 174 
3 150 151 175 
3 151 152 176 
3 152 153 177 
3 153 154 178 
3 154 155 179 
3 155 156 180 
3 156 157 181 
3 157 158 182 
3 158 159 183 
3 159 160 184 
3 160 161 185 
3 161 162 186 
3 162 163 187 
3 163 164 188 
3 164 165 189 
3 165 166 190 
3 166 167 191 
3 167 144 168 
3 168 169 193 
3 169 170 194 
3 170 171 195 
3 171 172 196 
3 172 173 197 
3 173 174 198 
3 174 175 199 
3 175 176 200 
3 176 177 201 
3 177 178 202 
3 178 179 203 
3 179 180 204 
3 180 181 205 
3 181 182 206 
3 182 183 207 
3 183 184 208 
3 184 185 209 
3 185 186 210 
3 186 187 211 
3 187 188 212 
3 188 189 213 
3 189 190 214 
3 190 191 215 
3 191 168 192 
3 192 193 217 
3 193 194 218 
3 194 195 219 
3 195 196 220 
3 196 197 221 
3 197 198 222 
3 198 199 223 
3 199 200 224 
3 200 201 225 
3 201 202 226 
3 202 203 227 
3 203 204 228 
3 204 205 229 
3 205 206 230 
3 206 207 231 
3 207 208 232 
3 208 209 233 
3 209 210 234 
3 210 211 235 
3 211 212 236 
3 212 213 237 
3 213 214 238 
3 214 215 239 
3 215 192 216 
3 216 217 241 
3 217 218 242 
3 218 219 243 
3 219 220 244 
3 220 221 245 
3 221 222 246 
3 222 223 247 
3 223 224 248 
3 224 225 249 
3 225 226 250 
3 226 227 251 
3 227 228 252 
3 228 229 253 
3 229 230 254 
3 230 231 255 
3 231 232 256 
3 232 233 257 
3 233 234 258 
3 234 235 259 
3 235 236 260 
3 236 237 261 
3 237 238 262 
3 238 239 263 
3 239 216 240 
3 240 241 265 
3 241 242 266 
3 242 243 267 
3 243 244 268 
3 244 245 269 
3 245 246 270 
3 246 247 271 
3 247 248 272 
3 248 249 273 
3 249 250 274 
3 250 251 275 
3 251 252 276 
3 252 253 277 
3 253 254 278 
3 254 255 279 
3 255 256 280 
3 256 257 281 
3 257 258 282 
3 258 259 283 
3 259 260 284 
3 260 261 285 
3 261 262 286 
3 262 263 287 
3 263 240 264 
3 264 265 1 
3 265 266 2 
3 266 267 3 
3 267 268 4 
3 268 269 5 
3 269 270 6 
3 270 271 7 
3 271 272 8 
3 272 273 9 
3 273 274 10 
3 274 275 11 
3 275 276 12 
3 276 277 13 
3 277 278 14 
3 278 279 15 
3 279 280 16 
3 280 281 17 
3 281 282 18 
3 282 283 19 
3 283 284 20 
3 284 285 21 
3 285 286 22 
3 286 287 23 
3 287 264 0 
3 0 23 287 
3 23 22 286 
3 22 21 285 
3 21 20 284 
3 20 19 283 
3 19 18 282 
3 18 17 281 
3 17 16 280 
3 16 15 279 
3 15 14 278 
3 14 13 277 
3 13 12 276 
3 12 11 275 
3 11 10 274 
3 10 9 273 
3 9 8 272 
3 8 7 271 
3 7 6 270 
3 6 5 269 
3 5 4 268 
3 4 3 267 
3 3 2 266 
3 2 1 265 
3 1 0 264 
3 264 287 263 
3 287 286 262 
3 286 285 261 
3 285 284 260 
3 284 283 259 
3 283 282 258 
3 282 281 257 
3 281 280 256 
3 280 279 255 
3 279 278 254 
3 278 277 253 
3 277 276 252 
3 276 275 251 
3 275 274 250 
3 274 273 249 
3 273 272 248 
3 272 271 247 
3 271 270 246 
3 270 269 245 
3 269 268 244 
3 268 267 243 
3 267 266 242 
3 266 265 241 
3 265 264 240 
3 240 263 239 
3 263 262 238 
3 262 261 237 
3 261 260 236 
3 260 259 235 
3 259 258 234 
3 258 257 233 
3 257 256 232 
3 256 255 231 
3 255 254 230 
3 254 253 229 
3 253 252 228 
3 252 251 227 
3 251 250 226 
3 250 249 225 
3 249 248 224 
3 248 247 223 
3 247 246 222 
3 246 245 221 
3 245 244 220 
3 244 243 219 
3 243 242 218 
3 242 241 217 
3 241 240 216 
3 216 239 215 
3 239 238 214 
3 238 237 213 
3 237 236 212 
3 236 235 211 
3 235 234 210 
3 234 233 209 
3 233 232 208 
3 232 231 207 
3 231 230 206 
3 230 229 205 
3 229 228 204 
3 228 227 203 
3 227 226 202 
3 226 225 201 
3 225 224 200 
3 224 223 199 
3 223 222 198 
3 222 221 197 
3 221 220 196 
3 220 219 195 
3 219 218 194 
3 218 217 193 
3 217 216 192 
3 192 215 191 
3 215 214 190 
3 214 213 189 
3 213 212 188 
3 212 211 187 
3 211 210 186 
3 210 209 185 
3 209 208 184 
3 208 207 183 
3 207 206 182 
3 206 205 181 
3 205 204 180 
3 204 203 179 
3 203 202 178 
3 202 201 177 
3 201 200 176 
3 200 199 175 
3 199 198 174 
3 198 197 173 
3 197 196 172 
3 196 195 171 
3 195 194 170 
3 194 193 169 
3 193 192 168 
3 168 191 167 
3 191 190 166 
3 190 189 165 
3 189 188 164 
3 188 187 163 
3 187 186 162 
3 186 185 161 
3 185 184 160 
3 184 183 159 
3 183 182 158 
3 182 181 157 
3 181 180 156 
3 180 179 155 
3 179 178 154 
3 178 177 153 
3 177 176 152 
3 176 175 151 
3 175 174 150 
3 174 173 149 
3 173 172 148 
3 172 171 147 
3 171 170 146 
3 170 169 145 
3 169 168 144 
3 144 167 143 
3 167 166 142 
3 166 165 141 
3 165 164 140 
3 164 163 139 
3 163 162 138 
3 162 161 137 
3 161 160 136 
3 160 159 135 
3 159 158 134 
3 158 157 133 
3 157 156 132 
3 156 155 131 
3 155 154 130 
3 154 153 129 
3 153 152 128 
3 152 151 127 
3 151 150 126 
3 150 149 125 
3 149 148 124 
3 148 147 123 
3 147 146 122 
3 146 145 121 
3 145 144 120 
3 120 143 119 
3 143 142 118 
3 142 141 117 
3 141 140 116 
3 140 139 115 
3 139 138 114 
3 138 137 113 
3 137 136 112 
3 136 135 111 
3 135 134 110 
3 134 133 109 
3 133 132 108 
3 132 131 107 
3 131 130 106 
3 130 129 105 
3 129 128 104 
3 128 127 103 
3 127 126 102 
3 126 125 101 
3 125 124 100 
3 124 123 99 
3 123 122 98 
3 122 121 97 
3 121 120 96 
3 96 119 95 
3 119 118 94 
3 118 117 93 
3 117 116 92 
3 116 115 91 
3 115 114 90 
3 114 113 89 
3 113 112 88 
3 112 111 87 
3 111 110 86 
3 110 109 85 
3 109 108 84 
3 108 107 83 
3 107 106 82 
3 106 105 81 
3 105 104 80 
3 104 103 79 
3 103 102 78 
3 102 101 77 
3 101 100 76 
3 100 99 75 
3 99 98 74 
3 98 97 73 
3 97 96 72 
3 72 95 71 
3 95 94 70 
3 94 93 69 
3 93 92 68 
3 92 91 67 
3 91 90 66 
3 90 89 65 
3 89 88 64 
3 88 87 63 
3 87 86 62 
3 86 85 61 
3 85 84 60 
3 84 83 59 
3 83 82 58 
3 82 81 57 
3 81 80 56 
3 80 79 55 
3 79 78 54 
3 78 77 53 
3 77 76 52 
3 76 75 51 
3 75 74 50 
3 74 73 49 
3 73 72 48 
3 48 71 47 
3 71 70 46 
3 70 69 45 
3 69 68 44 
3 68 67 43 
3 67 66 42 
3 66 65 41 
3 65 64 40 
3 64 63 39 
3 63 62 38 
3 62 61 37 
3 61 60 36 
3 60 59 35 
3 59 58 34 
3 58 57 33 
3 57 56 32 
3 56 55 31 
3 55 54 30 
3 54 53 29 
3 53 52 28 
3 52 51 27 
3 51 50 26 
3 50 49 25 
3 49 48 24 
3 24 47 23 
3 47 46 22 
3 46 45 21 
3 45 44 20 
3 44 43 19 
3 43 42 18 
3 42 41 17 
3 41 40 16 
3 40 39 15 
3 39 38 14 
3 38 37 13 
3 37 36 12 
3 36 35 11 
3 35 34 10 
3 34 33 9 
3 33 32 8 
3 32 31 7 
3 31 30 6 
3 30 29 5 
3 29 28 4 
3 28 27 3 
3 27 26 2 
3 26 25 1 
3 25 24 0 
